<svg width="24" height="24" viewBox="0 0 24 24" fill="none" xmlns="http://www.w3.org/2000/svg">
<g clip-path="url(#clip0_3392_15098)">
<path d="M19.0693 5.49335C17.769 4.8948 16.3747 4.45382 14.9169 4.20125C14.8904 4.19638 14.8638 4.20856 14.8502 4.23293C14.6709 4.5529 14.4722 4.97033 14.3331 5.29843C12.7651 5.06292 11.2052 5.06292 9.66938 5.29843C9.53026 4.96304 9.32442 4.5529 9.14429 4.23293C9.13062 4.20937 9.1041 4.19719 9.07755 4.20125C7.62053 4.45302 6.22623 4.894 4.9252 5.49335C4.91394 5.49822 4.90428 5.50635 4.89788 5.5169C2.25319 9.48089 1.5287 13.3475 1.88411 17.1661C1.88572 17.1848 1.89617 17.2026 1.91064 17.214C3.65553 18.4996 5.34576 19.28 7.00459 19.7974C7.03114 19.8055 7.05927 19.7957 7.07616 19.7738C7.46856 19.2362 7.81835 18.6693 8.11826 18.0732C8.13596 18.0383 8.11906 17.9969 8.08289 17.9831C7.52807 17.7719 6.99976 17.5145 6.49158 17.2221C6.45138 17.1986 6.44816 17.1409 6.48514 17.1133C6.59208 17.0329 6.69905 16.9492 6.80117 16.8648C6.81964 16.8493 6.84539 16.8461 6.86711 16.8558C10.2057 18.3851 13.8201 18.3851 17.1193 16.8558C17.141 16.8453 17.1668 16.8485 17.1861 16.8639C17.2882 16.9484 17.3951 17.0329 17.5029 17.1133C17.5399 17.1409 17.5375 17.1986 17.4973 17.2221C16.9891 17.5201 16.4608 17.7719 15.9051 17.9823C15.869 17.9961 15.8529 18.0383 15.8706 18.0732C16.1769 18.6685 16.5267 19.2354 16.9119 19.773C16.928 19.7957 16.9569 19.8055 16.9834 19.7974C18.6503 19.28 20.3405 18.4996 22.0854 17.214C22.1007 17.2026 22.1104 17.1856 22.112 17.1669C22.5373 12.7521 21.3995 8.91729 19.0958 5.51771C19.0902 5.50635 19.0805 5.49822 19.0693 5.49335ZM8.61682 14.8409C7.61168 14.8409 6.78347 13.9151 6.78347 12.7781C6.78347 11.6411 7.59562 10.7153 8.61682 10.7153C9.64605 10.7153 10.4662 11.6493 10.4502 12.7781C10.4502 13.9151 9.638 14.8409 8.61682 14.8409ZM15.3953 14.8409C14.3902 14.8409 13.562 13.9151 13.562 12.7781C13.562 11.6411 14.3741 10.7153 15.3953 10.7153C16.4246 10.7153 17.2448 11.6493 17.2287 12.7781C17.2287 13.9151 16.4246 14.8409 15.3953 14.8409Z" fill="#5F6061"/>
</g>
<defs>
<clipPath id="clip0_3392_15098">
<rect width="24" height="24" fill="white"/>
</clipPath>
</defs>
</svg>
