<svg width="20" height="20" viewBox="0 0 20 20" fill="none" xmlns="http://www.w3.org/2000/svg">
<path fill-rule="evenodd" clip-rule="evenodd" d="M14.2611 6.90491C14.5851 6.57812 15.1128 6.57591 15.4396 6.89998L18.0866 9.52498C18.2444 9.68146 18.3332 9.89448 18.3332 10.1167C18.3332 10.3389 18.2444 10.5519 18.0866 10.7084L15.4396 13.3334C15.1128 13.6575 14.5851 13.6553 14.2611 13.3285C13.937 13.0017 13.9392 12.4741 14.266 12.15L15.476 10.95L7.49984 10.9581C7.0396 10.9581 6.6665 10.585 6.6665 10.1248C6.6665 9.66452 7.0396 9.29142 7.49984 9.29142L15.476 9.28337L14.266 8.08342C13.9392 7.75934 13.937 7.23171 14.2611 6.90491Z" fill="#9B9C9E"/>
<path fill-rule="evenodd" clip-rule="evenodd" d="M4.1665 1.66602C2.78579 1.66602 1.6665 2.7853 1.6665 4.16602V15.8327C1.6665 17.2134 2.78579 18.3327 4.1665 18.3327H10.8332C12.2139 18.3327 13.3332 17.2134 13.3332 15.8327V11.666H7.49984C6.57936 11.666 5.83317 10.9198 5.83317 9.99935C5.83317 9.07887 6.57936 8.33268 7.49984 8.33268H13.3332V4.16602C13.3332 2.7853 12.2139 1.66602 10.8332 1.66602H4.1665Z" fill="#9B9C9E"/>
</svg>
