<svg width="20" height="20" viewBox="0 0 20 20" fill="none" xmlns="http://www.w3.org/2000/svg">
<path d="M10.1755 9.99935C12.4766 9.99935 14.3421 8.13387 14.3421 5.83268C14.3421 3.5315 12.4766 1.66602 10.1755 1.66602C7.87427 1.66602 6.00879 3.5315 6.00879 5.83268C6.00879 8.13387 7.87427 9.99935 10.1755 9.99935Z" fill="#9B9C9E"/>
<path d="M17.8505 14.4992C17.8505 14.3575 17.8505 14.2159 17.8172 14.0825C17.1089 10.2159 14.0005 11.2909 14.0005 11.2909C11.8839 12.2075 8.44219 12.2075 6.32552 11.2909C6.32552 11.2909 3.40052 10.2742 2.58385 13.7492C2.48385 14.1575 2.46719 14.5825 2.56719 14.9909C2.86719 16.2159 4.20052 18.5492 10.0089 18.8409C10.1172 18.8409 10.2255 18.8409 10.3339 18.8409C17.1255 18.4575 17.8089 15.4242 17.8589 14.5075L17.8505 14.4992Z" fill="#9B9C9E"/>
</svg>
