<svg width="24" height="24" viewBox="0 0 24 24"  xmlns="http://www.w3.org/2000/svg">
<path fill-rule="evenodd" clip-rule="evenodd" d="M8 3C8 2.44772 8.44772 2 9 2L15 2C15.5523 2 16 2.44772 16 3C16 3.55228 15.5523 4 15 4H9C8.44772 4 8 3.55228 8 3ZM3 6.17647C3 5.62419 3.44772 5.17647 4 5.17647H20C20.5523 5.17647 21 5.62419 21 6.17647C21 6.72876 20.5523 7.17647 20 7.17647L18.9566 7.17647C18.9579 7.22368 18.9577 7.27112 18.9558 7.3187L18.4999 18.9038C18.4889 20.562 17.2026 22 15.5 22H8.5C6.79741 22 5.5111 20.562 5.50007 18.9038L5.04417 7.3187C5.0423 7.27112 5.04207 7.22368 5.04343 7.17647H4C3.44772 7.17647 3 6.72876 3 6.17647ZM7.05966 7.17647C7.05165 7.18672 7.04134 7.20738 7.04263 7.24005L7.5 18.8627V18.8824C7.5 19.5542 8.0008 20 8.5 20H15.5C15.9992 20 16.5 19.5542 16.5 18.8824V18.8627L16.9574 7.24005C16.9587 7.20738 16.9483 7.18672 16.9403 7.17647H7.05966ZM10 9.41177C10.5523 9.41177 11 9.85948 11 10.4118V16.7647C11 17.317 10.5523 17.7647 10 17.7647C9.44772 17.7647 9 17.317 9 16.7647V10.4118C9 9.85948 9.44772 9.41177 10 9.41177ZM14 9.41177C14.5523 9.41177 15 9.85948 15 10.4118V16.7647C15 17.317 14.5523 17.7647 14 17.7647C13.4477 17.7647 13 17.317 13 16.7647V10.4118C13 9.85948 13.4477 9.41177 14 9.41177Z" fill="#414142"/>
</svg>
