<svg width="24" height="24" viewBox="0 0 24 24" fill="none" xmlns="http://www.w3.org/2000/svg">
<path fill-rule="evenodd" clip-rule="evenodd" d="M19.9479 5.23497C20.8252 5.47233 21.5192 6.17124 21.7549 7.05475C22.187 8.66354 22.2 11.9998 22.2 11.9998C22.2 11.9998 22.2 15.3493 21.768 16.9449C21.5323 17.8284 20.8383 18.5273 19.961 18.7646C18.3767 19.1998 12 19.1998 12 19.1998C12 19.1998 5.62341 19.1998 4.03907 18.7646C3.16179 18.5273 2.46783 17.8284 2.23214 16.9449C1.80005 15.3361 1.80005 11.9998 1.80005 11.9998C1.80005 11.9998 1.80005 8.66354 2.21905 7.06794C2.45473 6.18442 3.1487 5.48552 4.02598 5.24816C5.61032 4.81299 11.987 4.7998 11.987 4.7998C11.987 4.7998 18.3636 4.7998 19.9479 5.23497ZM15.2473 11.9998L9.95743 15.0855V8.91409L15.2473 11.9998Z" fill="#E9EBEE"/>
</svg>
