<svg width="24" height="24" viewBox="0 0 24 24" fill="none" xmlns="http://www.w3.org/2000/svg">
<g clip-path="url(#clip0_39_5709)">
<path d="M19.0693 5.49237C17.769 4.89383 16.3747 4.45285 14.9169 4.20028C14.8904 4.1954 14.8638 4.20759 14.8502 4.23195C14.6709 4.55192 14.4722 4.96935 14.3331 5.29745C12.7651 5.06194 11.2052 5.06194 9.66938 5.29745C9.53026 4.96206 9.32442 4.55192 9.14429 4.23195C9.13062 4.2084 9.1041 4.19622 9.07755 4.20028C7.62053 4.45204 6.22623 4.89302 4.9252 5.49237C4.91394 5.49725 4.90428 5.50537 4.89788 5.51592C2.25319 9.47992 1.5287 13.3465 1.88411 17.1651C1.88572 17.1838 1.89617 17.2017 1.91064 17.213C3.65553 18.4986 5.34576 19.2791 7.00459 19.7964C7.03114 19.8045 7.05927 19.7948 7.07616 19.7728C7.46856 19.2352 7.81835 18.6684 8.11826 18.0722C8.13596 18.0373 8.11906 17.9959 8.08289 17.9821C7.52807 17.7709 6.99976 17.5135 6.49158 17.2211C6.45138 17.1976 6.44816 17.1399 6.48514 17.1123C6.59208 17.0319 6.69905 16.9482 6.80117 16.8638C6.81964 16.8484 6.84539 16.8451 6.86711 16.8548C10.2057 18.3841 13.8201 18.3841 17.1193 16.8548C17.141 16.8443 17.1668 16.8476 17.1861 16.863C17.2882 16.9474 17.3951 17.0319 17.5029 17.1123C17.5399 17.1399 17.5375 17.1976 17.4973 17.2211C16.9891 17.5192 16.4608 17.7709 15.9051 17.9813C15.869 17.9951 15.8529 18.0373 15.8706 18.0722C16.1769 18.6675 16.5267 19.2344 16.9119 19.772C16.928 19.7948 16.9569 19.8045 16.9834 19.7964C18.6503 19.2791 20.3405 18.4986 22.0854 17.213C22.1007 17.2017 22.1104 17.1846 22.112 17.1659C22.5373 12.7512 21.3995 8.91631 19.0958 5.51673C19.0902 5.50537 19.0805 5.49725 19.0693 5.49237ZM8.61682 14.84C7.61168 14.84 6.78347 13.9141 6.78347 12.7772C6.78347 11.6402 7.59562 10.7144 8.61682 10.7144C9.64605 10.7144 10.4662 11.6483 10.4502 12.7772C10.4502 13.9141 9.638 14.84 8.61682 14.84ZM15.3953 14.84C14.3902 14.84 13.562 13.9141 13.562 12.7772C13.562 11.6402 14.3741 10.7144 15.3953 10.7144C16.4246 10.7144 17.2448 11.6483 17.2287 12.7772C17.2287 13.9141 16.4246 14.84 15.3953 14.84Z" fill="#B9BABD"/>
</g>
<defs>
<clipPath id="clip0_39_5709">
<rect width="24" height="24" fill="white"/>
</clipPath>
</defs>
</svg>
