<svg width="16" height="16" viewBox="0 0 16 16" fill="none" xmlns="http://www.w3.org/2000/svg">
<path fill-rule="evenodd" clip-rule="evenodd" d="M5.28795 2.84956C2.4428 3.61192 0.75436 6.53638 1.51672 9.38154C2.27907 12.2267 5.20354 13.9151 8.04869 13.1528C10.4996 12.4961 12.0933 10.234 11.9992 7.80041C11.9889 7.53321 11.9582 7.26367 11.9059 6.99363L11.3614 8.11433C11.2005 8.44551 10.8016 8.58354 10.4704 8.42265C10.1393 8.26175 10.0012 7.86285 10.1621 7.53167L11.444 4.89315C11.5287 4.71882 11.6851 4.58998 11.8724 4.54019C12.0597 4.4904 12.2594 4.5246 12.4195 4.63387L14.8423 6.2877C15.1464 6.49528 15.2246 6.91007 15.0171 7.21417C14.8095 7.51826 14.3947 7.59651 14.0906 7.38893L13.226 6.79873C13.2845 7.11613 13.3193 7.43353 13.3315 7.74886C13.4492 10.791 11.4592 13.6193 8.39378 14.4407C4.83734 15.3936 1.18176 13.2831 0.228816 9.72663C-0.72413 6.17019 1.38642 2.51461 4.94286 1.56166C6.25854 1.20913 7.58976 1.27606 8.79182 1.68106C9.14074 1.79861 9.3283 2.17676 9.21074 2.52568C9.09319 2.8746 8.71503 3.06216 8.36612 2.9446C7.40526 2.62088 6.34215 2.56709 5.28795 2.84956ZM6.63711 5.76303C6.63711 5.39484 6.33864 5.09637 5.97045 5.09637C5.60226 5.09637 5.30378 5.39484 5.30378 5.76303V9.09637C5.30378 9.46456 5.60226 9.76303 5.97045 9.76303H8.63711C9.0053 9.76303 9.30378 9.46456 9.30378 9.09637C9.30378 8.72818 9.0053 8.4297 8.63711 8.4297H6.63711V5.76303Z" fill="white"/>
</svg>
