<svg width="112" height="106" viewBox="0 0 112 106" fill="none" xmlns="http://www.w3.org/2000/svg">
<path d="M23.5882 11.7694L54.4802 6C64.0677 6 69.6573 11.5297 69.67 21.0049L69.7131 53.096C69.726 62.7265 64.1511 68.132 54.5636 68.132L30.1381 71.6824C20.3961 71.6824 14.9643 66.2769 14.9514 56.6464L14.9083 23.6677C14.5599 17.095 14.9083 13.9884 23.5882 11.7694Z" fill="url(#paint0_linear_20_8051)"/>
<g filter="url(#filter0_f_20_8051)">
<rect width="49.7247" height="42.6476" rx="14" transform="matrix(-0.0231204 -0.999733 -0.999535 0.0304775 71.0742 77.2207)" fill="#B9BABD"/>
</g>
<g filter="url(#filter1_b_20_8051)">
<path d="M31.3653 18H61.6301C72.6078 18 78.9995 24.853 78.9995 36.5955V76.366C78.9995 88.301 72.6078 95 61.6301 95H31.3653C20.2106 95 13.9995 88.301 13.9995 76.366V36.5955C13.9995 24.853 20.2106 18 31.3653 18Z" fill="#9B9C9E" fill-opacity="0.32"/>
<path d="M61.6301 18.5H31.3653C25.8927 18.5 21.6975 20.178 18.8662 23.2341C16.0296 26.2959 14.4995 30.8081 14.4995 36.5955V76.366C14.4995 82.2515 16.0305 86.7719 18.8654 89.818C21.6952 92.8585 25.8895 94.5 31.3653 94.5H61.6301C67.0156 94.5 71.2126 92.8596 74.0668 89.8166C76.9252 86.769 78.4995 82.2479 78.4995 76.366V36.5955C78.4995 30.8117 76.9262 26.2989 74.066 23.2355C71.2102 20.177 67.0124 18.5 61.6301 18.5Z" stroke="url(#paint1_linear_20_8051)" stroke-linecap="round" stroke-linejoin="round"/>
</g>
<g filter="url(#filter2_bd_20_8051)">
<mask id="path-5-inside-1_20_8051" fill="white">
<path fill-rule="evenodd" clip-rule="evenodd" d="M78.9711 71.423C77.4581 72.9527 75.0049 72.9527 73.4918 71.423C71.9787 69.8934 71.9787 67.4133 73.4918 65.8836L79.3533 59.9577L51.6084 59.9577C49.3151 59.9577 47.4561 58.297 47.4561 56.2484C47.4561 54.1999 49.3151 52.5392 51.6084 52.5392L79.3513 52.5392L73.4918 46.6154C71.9787 45.0857 71.9787 42.6056 73.4918 41.0759C75.0049 39.5462 77.4581 39.5462 78.9711 41.0759L94.0006 56.2495L78.9711 71.423Z"/>
</mask>
<path fill-rule="evenodd" clip-rule="evenodd" d="M78.9711 71.423C77.4581 72.9527 75.0049 72.9527 73.4918 71.423C71.9787 69.8934 71.9787 67.4133 73.4918 65.8836L79.3533 59.9577L51.6084 59.9577C49.3151 59.9577 47.4561 58.297 47.4561 56.2484C47.4561 54.1999 49.3151 52.5392 51.6084 52.5392L79.3513 52.5392L73.4918 46.6154C71.9787 45.0857 71.9787 42.6056 73.4918 41.0759C75.0049 39.5462 77.4581 39.5462 78.9711 41.0759L94.0006 56.2495L78.9711 71.423Z" fill="url(#paint2_linear_20_8051)" shape-rendering="crispEdges"/>
<path d="M73.4918 71.423L74.2028 70.7198L74.2028 70.7198L73.4918 71.423ZM78.9711 71.423L78.2602 70.7198L78.2607 70.7193L78.9711 71.423ZM73.4918 65.8836L74.2028 66.5868L74.2028 66.5868L73.4918 65.8836ZM79.3533 59.9577L79.3533 58.9577L81.749 58.9577L80.0642 60.661L79.3533 59.9577ZM79.3513 52.5392L80.0622 51.8359L81.747 53.5392L79.3513 53.5392L79.3513 52.5392ZM73.4918 46.6154L72.7808 47.3186L73.4918 46.6154ZM73.4918 41.0759L72.7808 40.3726L72.7808 40.3726L73.4918 41.0759ZM78.9711 41.0759L78.2607 41.7796L78.2602 41.7791L78.9711 41.0759ZM94.0006 56.2495L94.7111 55.5457L95.4082 56.2495L94.7111 56.9532L94.0006 56.2495ZM74.2028 70.7198C75.3244 71.8538 77.1385 71.8538 78.2602 70.7198L79.6821 72.1263C77.7776 74.0517 74.6853 74.0517 72.7808 72.1263L74.2028 70.7198ZM74.2028 66.5868C73.0751 67.7269 73.0751 69.5797 74.2028 70.7198L72.7808 72.1263C70.8824 70.207 70.8824 67.0996 72.7808 65.1803L74.2028 66.5868ZM80.0642 60.661L74.2028 66.5868L72.7808 65.1803L78.6423 59.2545L80.0642 60.661ZM51.6084 58.9577L79.3533 58.9577L79.3533 60.9577L51.6084 60.9577L51.6084 58.9577ZM48.4561 56.2484C48.4561 57.6416 49.7583 58.9577 51.6084 58.9577L51.6084 60.9577C48.872 60.9577 46.4561 58.9524 46.4561 56.2484L48.4561 56.2484ZM51.6084 53.5392C49.7583 53.5392 48.4561 54.8553 48.4561 56.2484L46.4561 56.2484C46.4561 53.5445 48.872 51.5392 51.6084 51.5392L51.6084 53.5392ZM79.3513 53.5392L51.6084 53.5392L51.6084 51.5392L79.3513 51.5392L79.3513 53.5392ZM74.2028 45.9121L80.0622 51.8359L78.6403 53.2424L72.7808 47.3186L74.2028 45.9121ZM74.2028 41.7791C73.0751 42.9192 73.0751 44.7721 74.2028 45.9121L72.7808 47.3186C70.8824 45.3993 70.8824 42.292 72.7808 40.3726L74.2028 41.7791ZM78.2602 41.7791C77.1385 40.6451 75.3244 40.6451 74.2027 41.7791L72.7808 40.3726C74.6853 38.4473 77.7776 38.4473 79.6821 40.3726L78.2602 41.7791ZM93.2902 56.9532L78.2607 41.7796L79.6816 40.3722L94.7111 55.5457L93.2902 56.9532ZM78.2607 70.7193L93.2902 55.5457L94.7111 56.9532L79.6816 72.1268L78.2607 70.7193Z" fill="url(#paint3_linear_20_8051)" mask="url(#path-5-inside-1_20_8051)"/>
</g>
<defs>
<filter id="filter0_f_20_8051" x="0.616699" y="0.929688" width="97.1377" height="104.17" filterUnits="userSpaceOnUse" color-interpolation-filters="sRGB">
<feFlood flood-opacity="0" result="BackgroundImageFix"/>
<feBlend mode="normal" in="SourceGraphic" in2="BackgroundImageFix" result="shape"/>
<feGaussianBlur stdDeviation="13.5" result="effect1_foregroundBlur_20_8051"/>
</filter>
<filter id="filter1_b_20_8051" x="-2.00049" y="2" width="97" height="109" filterUnits="userSpaceOnUse" color-interpolation-filters="sRGB">
<feFlood flood-opacity="0" result="BackgroundImageFix"/>
<feGaussianBlur in="BackgroundImageFix" stdDeviation="8"/>
<feComposite in2="SourceAlpha" operator="in" result="effect1_backgroundBlur_20_8051"/>
<feBlend mode="normal" in="SourceGraphic" in2="effect1_backgroundBlur_20_8051" result="shape"/>
</filter>
<filter id="filter2_bd_20_8051" x="23.4561" y="15.9277" width="94.5444" height="80.6426" filterUnits="userSpaceOnUse" color-interpolation-filters="sRGB">
<feFlood flood-opacity="0" result="BackgroundImageFix"/>
<feGaussianBlur in="BackgroundImageFix" stdDeviation="12"/>
<feComposite in2="SourceAlpha" operator="in" result="effect1_backgroundBlur_20_8051"/>
<feColorMatrix in="SourceAlpha" type="matrix" values="0 0 0 0 0 0 0 0 0 0 0 0 0 0 0 0 0 0 127 0" result="hardAlpha"/>
<feOffset dx="2" dy="4"/>
<feGaussianBlur stdDeviation="8"/>
<feComposite in2="hardAlpha" operator="out"/>
<feColorMatrix type="matrix" values="0 0 0 0 0.368627 0 0 0 0 0.154039 0 0 0 0 0.0862745 0 0 0 0.08 0"/>
<feBlend mode="normal" in2="effect1_backgroundBlur_20_8051" result="effect2_dropShadow_20_8051"/>
<feBlend mode="normal" in="SourceGraphic" in2="effect2_dropShadow_20_8051" result="shape"/>
</filter>
<linearGradient id="paint0_linear_20_8051" x1="43.2722" y1="9.5504" x2="43.2722" y2="71.6824" gradientUnits="userSpaceOnUse">
<stop stop-color="#737375"/>
<stop offset="1" stop-color="#212222"/>
</linearGradient>
<linearGradient id="paint1_linear_20_8051" x1="68.6526" y1="26.9706" x2="18.4563" y2="79.4511" gradientUnits="userSpaceOnUse">
<stop stop-color="white" stop-opacity="0.24"/>
<stop offset="1" stop-color="white" stop-opacity="0"/>
</linearGradient>
<linearGradient id="paint2_linear_20_8051" x1="102.456" y1="64.5" x2="49.4561" y2="43.5" gradientUnits="userSpaceOnUse">
<stop stop-color="white" stop-opacity="0.88"/>
<stop offset="1" stop-color="white" stop-opacity="0.24"/>
</linearGradient>
<linearGradient id="paint3_linear_20_8051" x1="66.988" y1="64.039" x2="112.35" y2="48.7725" gradientUnits="userSpaceOnUse">
<stop stop-color="white" stop-opacity="0.24"/>
<stop offset="1" stop-color="white" stop-opacity="0"/>
</linearGradient>
</defs>
</svg>
