<svg width="24" height="24" viewBox="0 0 24 24" fill="none" xmlns="http://www.w3.org/2000/svg">
<g clip-path="url(#clip0_3296_16503)">
<path d="M19.0695 5.49335C17.7693 4.8948 16.375 4.45382 14.9172 4.20125C14.8906 4.19638 14.8641 4.20856 14.8504 4.23293C14.6711 4.5529 14.4725 4.97033 14.3334 5.29843C12.7654 5.06292 11.2055 5.06292 9.66962 5.29843C9.5305 4.96304 9.32466 4.5529 9.14454 4.23293C9.13086 4.20937 9.10434 4.19719 9.07779 4.20125C7.62077 4.45302 6.22648 4.894 4.92544 5.49335C4.91418 5.49822 4.90453 5.50635 4.89812 5.5169C2.25343 9.48089 1.52894 13.3475 1.88435 17.1661C1.88596 17.1848 1.89641 17.2026 1.91089 17.214C3.65578 18.4996 5.346 19.28 7.00484 19.7974C7.03138 19.8055 7.05951 19.7957 7.07641 19.7738C7.46881 19.2362 7.81859 18.6693 8.1185 18.0732C8.1362 18.0383 8.11931 17.9969 8.08313 17.9831C7.52831 17.7719 7.00001 17.5145 6.49182 17.2221C6.45162 17.1986 6.4484 17.1409 6.48538 17.1133C6.59233 17.0329 6.6993 16.9492 6.80141 16.8648C6.81989 16.8493 6.84563 16.8461 6.86735 16.8558C10.2059 18.3851 13.8204 18.3851 17.1196 16.8558C17.1413 16.8453 17.167 16.8485 17.1863 16.8639C17.2884 16.9484 17.3954 17.0329 17.5031 17.1133C17.5401 17.1409 17.5377 17.1986 17.4975 17.2221C16.9893 17.5201 16.461 17.7719 15.9054 17.9823C15.8692 17.9961 15.8531 18.0383 15.8708 18.0732C16.1772 18.6685 16.527 19.2354 16.9121 19.773C16.9282 19.7957 16.9571 19.8055 16.9837 19.7974C18.6506 19.28 20.3408 18.4996 22.0857 17.214C22.101 17.2026 22.1106 17.1856 22.1122 17.1669C22.5376 12.7521 21.3998 8.91729 19.096 5.51771C19.0904 5.50635 19.0808 5.49822 19.0695 5.49335ZM8.61707 14.8409C7.61192 14.8409 6.78371 13.9151 6.78371 12.7781C6.78371 11.6411 7.59586 10.7153 8.61707 10.7153C9.64629 10.7153 10.4665 11.6493 10.4504 12.7781C10.4504 13.9151 9.63825 14.8409 8.61707 14.8409ZM15.3956 14.8409C14.3905 14.8409 13.5623 13.9151 13.5623 12.7781C13.5623 11.6411 14.3744 10.7153 15.3956 10.7153C16.4248 10.7153 17.245 11.6493 17.2289 12.7781C17.2289 13.9151 16.4248 14.8409 15.3956 14.8409Z" fill="#E9EBEE"/>
</g>
<defs>
<clipPath id="clip0_3296_16503">
<rect width="24" height="24" fill="white"/>
</clipPath>
</defs>
</svg>
