<svg width="16" height="16" viewBox="0 0 16 16" fill="none" xmlns="http://www.w3.org/2000/svg">
<path d="M7.82579 4.73519C7.56062 4.41699 7.0877 4.37399 6.76949 4.63917C6.45128 4.90434 6.40829 5.37726 6.67346 5.69547L7.82579 4.73519ZM9.45935 7.867L10.0355 8.34714C10.2673 8.06901 10.2673 7.665 10.0355 7.38686L9.45935 7.867ZM6.67346 10.0385C6.40829 10.3567 6.45128 10.8297 6.76949 11.0948C7.0877 11.36 7.56062 11.317 7.82579 10.9988L6.67346 10.0385ZM6.67346 5.69547L8.88318 8.34714L10.0355 7.38686L7.82579 4.73519L6.67346 5.69547ZM8.88318 7.38686L6.67346 10.0385L7.82579 10.9988L10.0355 8.34714L8.88318 7.38686ZM8 2.75C10.8995 2.75 13.25 5.1005 13.25 8H14.75C14.75 4.27208 11.7279 1.25 8 1.25V2.75ZM13.25 8C13.25 10.8995 10.8995 13.25 8 13.25V14.75C11.7279 14.75 14.75 11.7279 14.75 8H13.25ZM8 13.25C5.1005 13.25 2.75 10.8995 2.75 8H1.25C1.25 11.7279 4.27208 14.75 8 14.75V13.25ZM2.75 8C2.75 5.1005 5.1005 2.75 8 2.75V1.25C4.27208 1.25 1.25 4.27208 1.25 8H2.75Z" fill="#5F6061"/>
</svg>
