<svg width="21" height="20" viewBox="0 0 21 20" fill="none" xmlns="http://www.w3.org/2000/svg">
<path d="M17.8236 14.4615V14.5361C17.7805 14.8974 17.5966 15.6001 16.8257 16.2911C15.9423 17.083 14.1719 17.964 10.6385 18.1673H10.638H10.6373H10.6366H10.6359H10.6352H10.6346H10.6339H10.6332H10.6325H10.6318H10.6311H10.6304H10.6297H10.629H10.6284H10.6277H10.627H10.6263H10.6256H10.6249H10.6242H10.6235H10.6228H10.6222H10.6215H10.6208H10.6201H10.6194H10.6187H10.618H10.6173H10.6166H10.616H10.6153H10.6146H10.6139H10.6132H10.6125H10.6118H10.6111H10.6104H10.6098H10.6091H10.6084H10.6077H10.607H10.6063H10.6056H10.6049H10.6042H10.6036H10.6029H10.6022H10.6015H10.6008H10.6001H10.5994H10.5987H10.598H10.5974H10.5967H10.596H10.5953H10.5946H10.5939H10.5932H10.5925H10.5918H10.5912H10.5905H10.5898H10.5891H10.5884H10.5877H10.587H10.5863H10.5856H10.585H10.5843H10.5836H10.5829H10.5822H10.5815H10.5808H10.5801H10.5794H10.5788H10.5781H10.5774H10.5767H10.576H10.5753H10.5746H10.5739H10.5732H10.5726H10.5719H10.5712H10.5705H10.5698H10.5691H10.5684H10.5677H10.567H10.5664H10.5657H10.565H10.5643H10.5636H10.5629H10.5622H10.5615H10.5608H10.5602H10.5595H10.5588H10.5581H10.5574H10.5567H10.556H10.5553H10.5546H10.554H10.5533H10.5526H10.5519H10.5512H10.5505H10.5498H10.5491H10.5484H10.5478H10.5471H10.5464H10.5457H10.545H10.5443H10.5436H10.5429H10.5422H10.5416H10.5409H10.5402H10.5395H10.5388H10.5381H10.5374H10.5367H10.536H10.5354H10.5347H10.534H10.5333H10.5326H10.5319H10.5312H10.5305H10.5299H10.5292H10.5285H10.5278H10.5271H10.5264H10.5257H10.525H10.5243H10.5237H10.523H10.5223H10.5216H10.5209H10.5202H10.5195H10.5188H10.5181H10.5175H10.5168H10.5161H10.5154H10.5147H10.514H10.5133H10.5126H10.5119H10.5113H10.5106H10.5099H10.5092H10.5085H10.5078H10.5071H10.5064H10.5057H10.5051H10.5044H10.5037H10.503H10.5023H10.5016H10.5009H10.5002H10.4995H10.4989H10.4982H10.4975H10.4968H10.4961H10.4954H10.4947H10.494H10.4933H10.4927H10.492H10.4913H10.4906H10.4899H10.4892H10.4885H10.4878H10.4871H10.4865H10.4858H10.4851H10.4844H10.4837H10.483H10.4823H10.4816H10.4809H10.4803H10.4796H10.4789H10.4782H10.4775H10.4768H10.4761H10.4754H10.4747H10.4741H10.4734H10.4727H10.472H10.4713H10.4706H10.4699H10.4692H10.4685H10.4679H10.4672H10.4665H10.4658H10.4651H10.4644H10.4637H10.463H10.4623H10.4617H10.461H10.4603H10.4596H10.4589H10.4582H10.4575H10.4568H10.4561H10.4555H10.4548H10.4541H10.4534H10.4527H10.452H10.4513H10.4506H10.4499H10.4493H10.4486H10.4479H10.4472H10.4465H10.4458H10.4451H10.4444H10.4437H10.4431H10.4424H10.4417H10.441H10.4403H10.4396H10.4389H10.4382H10.4375H10.4369H10.4362H10.4355H10.4348H10.4341H10.4334H10.4327H10.432H10.4313H10.4307H10.43H10.4293H10.4286H10.4279H10.4272H10.4265H10.4258H10.4252H10.4245H10.4238H10.4231H10.4224H10.4217H10.421H10.4203H10.4196H10.419H10.4183H10.4176H10.4169H10.4162H10.4155H10.4148H10.4141H10.4134H10.4128H10.4121H10.4114H10.4107H10.41H10.4093H10.4086H10.4079H10.4072H10.4066H10.4059H10.4052H10.4045H10.4038H10.4031H10.4024H10.4017H10.401H10.4004H10.3997H10.399H10.3983H10.3976H10.3969H10.3962H10.3955H10.3948H10.3942H10.3935H10.3928H10.3921H10.3914H10.3907H10.39H10.3893H10.3886H10.388H10.3873H10.3866H10.3859H10.3852H10.3845H10.3838H10.3831H10.3824H10.3818H10.3811H10.3804H10.3797H10.379H10.3783H10.3776H10.3769H10.3762H10.3756H10.3749H10.3742H10.3735H10.3728H10.3721H10.3714H10.3707H10.37H10.3694H10.3687H10.368H10.3673H10.3666H10.3659H10.3652H10.3645H10.3638H10.3632H10.3625H10.3618H10.3611H10.3604H10.3597H10.359H10.3583H10.3576H10.357H10.3563H10.3556H10.3549H10.3542H10.3535H10.3528H10.3521H10.3514H10.3508H10.3501H10.3494H10.3487H10.348H10.3473H10.3466H10.3459H10.3452H10.3446H10.3439H10.3432H10.3425H10.3418H10.3411H10.3404H10.3397H10.3396C7.32422 18.0129 5.59615 17.3361 4.61063 16.6425C3.64127 15.9602 3.32257 15.2148 3.21015 14.7563C3.14627 14.4958 3.15127 14.2007 3.22824 13.8868L3.22828 13.8868L3.23043 13.8777C3.41863 13.0778 3.70811 12.6174 3.97586 12.347C4.24131 12.0789 4.5376 11.9447 4.8306 11.8814C5.13351 11.816 5.43261 11.8274 5.66617 11.8608C5.7803 11.8771 5.87146 11.8975 5.93 11.9126C5.94664 11.9169 5.96043 11.9207 5.97114 11.9237C7.27225 12.475 8.90266 12.7293 10.4815 12.7293C12.0601 12.7293 13.6901 12.4751 14.9911 11.9241C15.0029 11.9208 15.0183 11.9166 15.0371 11.9118C15.0997 11.896 15.1965 11.8749 15.317 11.8588C15.5637 11.8259 15.876 11.8189 16.1881 11.8961C16.4878 11.9703 16.7942 12.1229 17.0667 12.4313C17.3441 12.7452 17.6365 13.2777 17.8039 14.1903L17.8096 14.2217L17.8169 14.2508C17.8173 14.2529 17.8193 14.265 17.8209 14.292C17.8233 14.3328 17.8236 14.3795 17.8236 14.4615Z" stroke="white" stroke-width="2"/>
<path d="M13.6673 5.83268C13.6673 7.58158 12.2496 8.99935 10.5007 8.99935C8.75175 8.99935 7.33398 7.58158 7.33398 5.83268C7.33398 4.08378 8.75175 2.66602 10.5007 2.66602C12.2496 2.66602 13.6673 4.08378 13.6673 5.83268Z" stroke="white" stroke-width="2"/>
</svg>
