<svg width="16" height="16" viewBox="0 0 16 16" fill="none" xmlns="http://www.w3.org/2000/svg">
<path fill-rule="evenodd" clip-rule="evenodd" d="M8.00003 4.13379C8.36822 4.13379 8.6667 4.43227 8.6667 4.80046L8.6667 7.33379H11.2C11.5682 7.33379 11.8667 7.63227 11.8667 8.00046C11.8667 8.36865 11.5682 8.66712 11.2 8.66712H8.6667L8.6667 11.2005C8.6667 11.5686 8.36822 11.8671 8.00003 11.8671C7.63184 11.8671 7.33336 11.5686 7.33336 11.2005L7.33336 8.66712H4.80003C4.43184 8.66712 4.13336 8.36865 4.13336 8.00046C4.13336 7.63227 4.43184 7.33379 4.80003 7.33379L7.33336 7.33379V4.80046C7.33336 4.43227 7.63184 4.13379 8.00003 4.13379Z" fill="#5F6061"/>
<path fill-rule="evenodd" clip-rule="evenodd" d="M7.99998 2.66634C5.05446 2.66634 2.66665 5.05416 2.66665 7.99967C2.66665 10.9452 5.05446 13.333 7.99998 13.333C10.9455 13.333 13.3333 10.9452 13.3333 7.99967C13.3333 5.05416 10.9455 2.66634 7.99998 2.66634ZM1.33331 7.99967C1.33331 4.31778 4.31808 1.33301 7.99998 1.33301C11.6819 1.33301 14.6666 4.31778 14.6666 7.99967C14.6666 11.6816 11.6819 14.6663 7.99998 14.6663C4.31808 14.6663 1.33331 11.6816 1.33331 7.99967Z" fill="#5F6061"/>
</svg>
