<svg width="20" height="20" viewBox="0 0 20 20" fill="none" xmlns="http://www.w3.org/2000/svg">
<path fill-rule="evenodd" clip-rule="evenodd" d="M1.6665 9.99935C1.6665 5.39698 5.39746 1.66602 9.99984 1.66602C14.6022 1.66602 18.3332 5.39698 18.3332 9.99935C18.3332 14.6017 14.6022 18.3327 9.99984 18.3327C5.39746 18.3327 1.6665 14.6017 1.6665 9.99935ZM6.75893 6.75844C7.08437 6.43301 7.61201 6.43301 7.93744 6.75844L9.99984 8.82084L12.0622 6.75844C12.3877 6.43301 12.9153 6.43301 13.2407 6.75844C13.5662 7.08388 13.5662 7.61152 13.2407 7.93696L11.1783 9.99935L13.2407 12.0617C13.5662 12.3872 13.5662 12.9148 13.2407 13.2403C12.9153 13.5657 12.3877 13.5657 12.0622 13.2403L9.99984 11.1779L7.93744 13.2403C7.61201 13.5657 7.08437 13.5657 6.75893 13.2403C6.43349 12.9148 6.43349 12.3872 6.75893 12.0617L8.82133 9.99935L6.75893 7.93695C6.43349 7.61152 6.43349 7.08388 6.75893 6.75844Z" fill="#B9BABD"/>
</svg>
