<svg width="20" height="20" viewBox="0 0 20 20" fill="none" xmlns="http://www.w3.org/2000/svg">
<path d="M5.83268 4.99935C5.83268 4.53911 5.45959 4.16602 4.99935 4.16602C4.53911 4.16602 4.16602 4.53911 4.16602 4.99935V12.4993C4.16602 12.9596 4.53911 13.3327 4.99935 13.3327H13.8208L11.9101 15.2434C11.5847 15.5689 11.5847 16.0965 11.9101 16.4219C12.2355 16.7474 12.7632 16.7474 13.0886 16.4219L16.4219 13.0886C16.7474 12.7632 16.7474 12.2355 16.4219 11.9101L13.0886 8.57676C12.7632 8.25132 12.2355 8.25132 11.9101 8.57676C11.5847 8.9022 11.5847 9.42983 11.9101 9.75527L13.8208 11.666H5.83268L5.83268 4.99935Z" fill="#5F6061"/>
</svg>
