<svg width="20" height="20" viewBox="0 0 20 20" fill="none" xmlns="http://www.w3.org/2000/svg">
<path fill-rule="evenodd" clip-rule="evenodd" d="M9.99935 18.3332C14.6017 18.3332 18.3327 14.6022 18.3327 9.99984C18.3327 5.39746 14.6017 1.6665 9.99935 1.6665C5.39698 1.6665 1.66602 5.39746 1.66602 9.99984C1.66602 14.6022 5.39698 18.3332 9.99935 18.3332ZM9.87312 6.79273C9.4826 6.40221 8.84943 6.40221 8.45891 6.79273C8.06839 7.18325 8.06839 7.81642 8.45891 8.20694L10.2518 9.99984L8.45891 11.7927C8.06839 12.1833 8.06839 12.8164 8.45891 13.2069C8.84943 13.5975 9.4826 13.5975 9.87312 13.2069L12.3731 10.7069C12.7636 10.3164 12.7636 9.68325 12.3731 9.29273L9.87312 6.79273Z" fill="#B9BABD"/>
</svg>
