<svg width="20" height="20" viewBox="0 0 20 20" fill="none" xmlns="http://www.w3.org/2000/svg">
<path fill-rule="evenodd" clip-rule="evenodd" d="M1.6665 10.0003C1.6665 5.39795 5.39746 1.66699 9.99984 1.66699C14.6022 1.66699 18.3332 5.39795 18.3332 10.0003C18.3332 14.6027 14.6022 18.3337 9.99984 18.3337C5.39746 18.3337 1.6665 14.6027 1.6665 10.0003ZM6.75893 6.75942C7.08437 6.43398 7.61201 6.43398 7.93744 6.75942L9.99984 8.82182L12.0622 6.75942C12.3877 6.43398 12.9153 6.43398 13.2407 6.75942C13.5662 7.08486 13.5662 7.61249 13.2407 7.93793L11.1783 10.0003L13.2407 12.0627C13.5662 12.3882 13.5662 12.9158 13.2407 13.2412C12.9153 13.5667 12.3877 13.5667 12.0622 13.2412L9.99984 11.1788L7.93744 13.2412C7.61201 13.5667 7.08437 13.5667 6.75893 13.2412C6.43349 12.9158 6.43349 12.3882 6.75893 12.0627L8.82133 10.0003L6.75893 7.93793C6.43349 7.61249 6.43349 7.08486 6.75893 6.75942Z" fill="#F33737"/>
</svg>
