<svg width="24" height="24" viewBox="0 0 24 24" fill="none" xmlns="http://www.w3.org/2000/svg">
<path fill-rule="evenodd" clip-rule="evenodd" d="M2.60259 11.0902C8.07866 8.63465 11.7302 7.01581 13.5573 6.23367C18.774 4.00048 19.8579 3.61256 20.5645 3.59975C20.7199 3.59693 21.0673 3.63656 21.2924 3.82452C21.4824 3.98323 21.5347 4.19762 21.5597 4.34809C21.5847 4.49856 21.6159 4.84134 21.5911 5.10918C21.3084 8.16624 20.0852 15.5849 19.4629 19.0089C19.1996 20.4577 18.6811 20.9434 18.1792 20.991C17.0883 21.0943 16.26 20.249 15.2034 19.5362C13.5502 18.4208 12.6162 17.7264 11.0114 16.638C9.15674 15.3801 10.359 14.6888 11.416 13.5589C11.6926 13.2632 16.4989 8.76379 16.5919 8.35562C16.6035 8.30457 16.6143 8.11429 16.5045 8.01381C16.3947 7.91334 16.2326 7.94769 16.1156 7.97502C15.9498 8.01376 13.3086 9.81045 8.19216 13.3651C7.44248 13.8949 6.76344 14.1531 6.15505 14.1396C5.48434 14.1247 4.19418 13.7493 3.23507 13.4284C2.05869 13.0348 1.12372 12.8267 1.20514 12.1583C1.24754 11.8102 1.71336 11.4541 2.60259 11.0902Z" fill="#B9BABD"/>
</svg>
