<svg width="24" height="24" viewBox="0 0 24 24" fill="none" xmlns="http://www.w3.org/2000/svg">
<path fill-rule="evenodd" clip-rule="evenodd" d="M19.9531 6H8.43297L4.04685 12L8.43297 18H19.9531L19.9531 6ZM8.43297 4C7.77193 4 7.15159 4.31193 6.76737 4.83752L2.38126 10.8375C1.87291 11.5329 1.87291 12.4671 2.38126 13.1625L6.76737 19.1625C7.15159 19.6881 7.77194 20 8.43297 20H19.9531C21.0836 20 22 19.1046 22 18V6C22 4.89543 21.0836 4 19.9531 4H8.43297Z" fill="#5F6061"/>
<path fill-rule="evenodd" clip-rule="evenodd" d="M17.2071 8.29304C17.5976 8.68357 17.5976 9.31673 17.2071 9.70726L11.2076 15.7067C10.8171 16.0972 10.184 16.0972 9.79344 15.7067C9.40291 15.3162 9.40291 14.683 9.79344 14.2925L15.7929 8.29304C16.1834 7.90252 16.8166 7.90252 17.2071 8.29304Z" fill="#5F6061"/>
<path fill-rule="evenodd" clip-rule="evenodd" d="M9.79304 8.29289C10.1836 7.90237 10.8167 7.90237 11.2073 8.29289L17.2067 14.2923C17.5972 14.6829 17.5972 15.316 17.2067 15.7066C16.8162 16.0971 16.183 16.0971 15.7925 15.7066L9.79304 9.70711C9.40252 9.31658 9.40252 8.68342 9.79304 8.29289Z" fill="#5F6061"/>
</svg>
