<svg width="20" height="20" viewBox="0 0 20 20" fill="none" xmlns="http://www.w3.org/2000/svg">
<path fill-rule="evenodd" clip-rule="evenodd" d="M16.6531 7.26698L16.9583 7.43675L16.9597 7.43746L16.9597 7.43747C17.4563 7.71369 17.7047 7.8519 17.8859 8.04835C18.0463 8.22232 18.1679 8.42871 18.2425 8.65329C18.3267 8.90714 18.3274 9.19157 18.3287 9.76087L18.3298 10.2394V10.2394C18.3311 10.8058 18.3317 11.0907 18.2482 11.3448C18.1738 11.5709 18.0521 11.7782 17.8908 11.9533C17.7084 12.1511 17.4573 12.2903 16.956 12.5681L16.6547 12.7351L16.6532 12.7358C16.6074 12.7612 16.5843 12.7739 16.562 12.7873C16.333 12.9238 16.1401 13.1134 15.9995 13.34C15.9856 13.3624 15.9717 13.3855 15.9449 13.4319L15.9448 13.4321C15.9181 13.4782 15.9046 13.5016 15.8922 13.5248C15.7663 13.7596 15.6986 14.0216 15.6946 14.2881C15.6943 14.3144 15.6944 14.3411 15.6953 14.3947L15.7014 14.7609C15.7109 15.3225 15.7156 15.6053 15.6367 15.8591C15.5663 16.0852 15.4486 16.2936 15.2913 16.4707C15.1139 16.6703 14.8682 16.8129 14.378 17.0974L13.9655 17.3368L13.9654 17.3368C13.4714 17.6236 13.2238 17.7673 12.9609 17.8222C12.728 17.8708 12.4875 17.8687 12.2554 17.8166C11.993 17.7578 11.7476 17.6106 11.2565 17.3157L10.943 17.1275L10.943 17.1275C10.9071 17.1059 10.8866 17.0936 10.8662 17.0822C10.6339 16.9528 10.3737 16.8809 10.1079 16.8723C10.0812 16.8715 10.054 16.8715 9.9995 16.8715C9.94514 16.8715 9.91795 16.8715 9.89122 16.8723C9.62603 16.8808 9.36741 16.9525 9.13551 17.0814C9.11214 17.0944 9.08852 17.1084 9.04187 17.1364L8.74702 17.3129L8.74696 17.3129C8.25788 17.6058 8.01304 17.7524 7.75174 17.8111C7.52054 17.863 7.28095 17.8648 7.04891 17.8168C6.78662 17.7625 6.53969 17.6203 6.04565 17.3356L5.63423 17.0985C5.13879 16.813 4.89096 16.6702 4.71219 16.4699C4.55403 16.2926 4.43572 16.0838 4.36494 15.8571C4.28492 15.6007 4.28912 15.3145 4.29878 14.7428L4.30451 14.4032C4.30548 14.3457 4.30589 14.3171 4.30541 14.2889C4.30095 14.0272 4.23551 13.7701 4.11328 13.5387C4.10278 13.5188 4.09139 13.499 4.07282 13.4666C4.06803 13.4582 4.06276 13.4491 4.05691 13.4389C4.028 13.3883 4.01354 13.3631 3.99848 13.3388C3.85908 13.1135 3.6679 12.9246 3.44097 12.7879C3.42073 12.7758 3.39977 12.7641 3.36446 12.7445C3.35701 12.7404 3.34892 12.7359 3.34007 12.731L3.04145 12.5648C2.54395 12.2881 2.29585 12.1499 2.11453 11.9533C1.95412 11.7793 1.83316 11.5729 1.7586 11.3483C1.67433 11.0945 1.67255 10.81 1.67126 10.2407L1.6702 9.77227C1.66889 9.19913 1.66882 8.91253 1.75291 8.65695C1.82729 8.43085 1.94915 8.22325 2.11046 8.04822C2.29281 7.85038 2.5434 7.71135 3.04471 7.43354L3.34601 7.26657C3.35451 7.26186 3.36226 7.25758 3.36938 7.25364C3.40153 7.23585 3.4209 7.22514 3.43944 7.21408C3.66845 7.07753 3.86114 6.88808 4.00174 6.66154C4.01243 6.64432 4.02257 6.6267 4.03887 6.59839C4.04378 6.58986 4.04924 6.58037 4.05545 6.56962C4.08225 6.52323 4.09567 6.5 4.10812 6.47678C4.23405 6.24192 4.30286 5.98013 4.30681 5.71368C4.30703 5.69842 4.3066 5.68307 4.30603 5.66245C4.30561 5.64745 4.30511 5.62967 4.30473 5.60711L4.29878 5.25322C4.28919 4.68344 4.28495 4.3984 4.3645 4.14279C4.43487 3.91665 4.55245 3.70814 4.70975 3.53109C4.88701 3.33157 5.13253 3.18907 5.6224 2.90476L5.6224 2.90476L5.6269 2.90201L6.03329 2.66615L6.03549 2.66517C6.5298 2.37827 6.77696 2.23482 7.03992 2.1799C7.27281 2.13126 7.51309 2.1327 7.74523 2.18478C8.00762 2.24365 8.25352 2.39128 8.74458 2.68609L9.04131 2.86423C9.05043 2.8697 9.05865 2.87465 9.06616 2.87916C9.09708 2.89777 9.11576 2.90901 9.13459 2.91951C9.36685 3.04897 9.62627 3.12065 9.89204 3.1292C9.91871 3.13006 9.94706 3.13006 10.0011 3.13006C10.0555 3.13006 10.0826 3.13006 10.1094 3.1292C10.3746 3.12069 10.6334 3.0494 10.8653 2.92046C10.8887 2.90747 10.9123 2.8934 10.9589 2.86548L11.2538 2.68893L11.2566 2.68761C11.7443 2.39557 11.9883 2.24947 12.2492 2.19089C12.4804 2.13898 12.7199 2.13676 12.9519 2.18478C13.2142 2.23907 13.4613 2.38146 13.9554 2.66615L14.3669 2.90328C14.8623 3.18876 15.1097 3.33169 15.2885 3.53202C15.4466 3.70925 15.5651 3.91809 15.6359 4.14483C15.7156 4.40009 15.7108 4.68452 15.7012 5.25163L15.6953 5.60601C15.6943 5.66032 15.6943 5.68763 15.6947 5.71436C15.6987 5.98027 15.7666 6.24153 15.8922 6.47596C15.9048 6.49945 15.9185 6.52318 15.9455 6.56991L15.9457 6.57022C15.953 6.58299 15.9594 6.59404 15.965 6.60382C15.9801 6.63005 15.9899 6.64715 16.0002 6.66367C16.1401 6.88901 16.332 7.07735 16.5595 7.21367C16.5824 7.22739 16.6057 7.24061 16.6531 7.26698ZM10 14.1676C7.69881 14.1676 5.83333 12.3022 5.83333 10.001C5.83333 7.69979 7.69881 5.83431 10 5.83431C12.3012 5.83431 14.1667 7.69979 14.1667 10.001C14.1667 12.3022 12.3012 14.1676 10 14.1676Z" fill="#9B9C9E"/>
<path d="M16.9583 7.43675L16.4721 8.31063C16.4868 8.3188 16.5017 8.32659 16.5168 8.33401L16.9583 7.43675ZM16.6531 7.26698L16.167 8.14086L16.167 8.14086L16.6531 7.26698ZM16.9597 7.43746L17.5144 6.60541C17.4782 6.58123 17.4403 6.55944 17.4012 6.5402L16.9597 7.43746ZM16.9597 7.43747L16.405 8.26952C16.4273 8.28437 16.4502 8.29833 16.4736 8.31134L16.9597 7.43747ZM17.8859 8.04835L18.621 7.37048L18.621 7.37047L17.8859 8.04835ZM18.2425 8.65329L17.2934 8.96835L17.2934 8.96836L18.2425 8.65329ZM18.3287 9.76087L17.3287 9.76314V9.76315L18.3287 9.76087ZM18.3298 10.2394H19.3298L19.3298 10.2371L18.3298 10.2394ZM18.3298 10.2394H17.3298L17.3298 10.2417L18.3298 10.2394ZM18.2482 11.3448L19.1981 11.6573L19.1981 11.6573L18.2482 11.3448ZM17.8908 11.9533L17.1554 11.2755L17.8908 11.9533ZM16.956 12.5681L16.4713 11.6934L16.956 12.5681ZM16.6547 12.7351L17.0751 13.6424C17.0969 13.6323 17.1184 13.6214 17.1395 13.6097L16.6547 12.7351ZM16.6532 12.7358L16.2328 11.8284C16.2109 11.8386 16.1895 11.8495 16.1684 11.8611L16.6532 12.7358ZM16.562 12.7873L17.0741 13.6462L17.0741 13.6462L16.562 12.7873ZM15.9995 13.34L16.8491 13.8673L16.8491 13.8673L15.9995 13.34ZM15.9449 13.4319L16.8055 13.9413L16.8108 13.9321L15.9449 13.4319ZM15.9448 13.4321L15.0842 12.9227L15.0788 12.9319L15.9448 13.4321ZM15.8922 13.5248L15.0109 13.0522L15.0109 13.0522L15.8922 13.5248ZM15.6946 14.2881L16.6945 14.3029V14.3029L15.6946 14.2881ZM15.6953 14.3947L14.6954 14.4115V14.4115L15.6953 14.3947ZM15.7014 14.7609L14.7016 14.7777L14.7016 14.7777L15.7014 14.7609ZM15.6367 15.8591L14.6818 15.5619V15.5619L15.6367 15.8591ZM15.2913 16.4707L14.5437 15.8065L14.5437 15.8065L15.2913 16.4707ZM14.378 17.0974L14.8799 17.9623L14.8799 17.9623L14.378 17.0974ZM13.9655 17.3368L13.4635 16.4719C13.4517 16.4788 13.4401 16.4858 13.4286 16.4932L13.9655 17.3368ZM13.9654 17.3368L14.4674 18.2017C14.4792 18.1949 14.4908 18.1878 14.5023 18.1805L13.9654 17.3368ZM12.9609 17.8222L12.7564 16.8433H12.7564L12.9609 17.8222ZM12.2554 17.8166L12.0365 18.7924L12.2554 17.8166ZM11.2565 17.3157L10.7418 18.1731L10.7418 18.1731L11.2565 17.3157ZM10.943 17.1275L11.4578 16.2702L11.4575 16.27L10.943 17.1275ZM10.943 17.1275L10.428 17.9847L10.4285 17.985L10.943 17.1275ZM10.8662 17.0822L11.3531 16.2088L11.353 16.2088L10.8662 17.0822ZM10.1079 16.8723L10.1401 15.8728H10.1401L10.1079 16.8723ZM9.89122 16.8723L9.8592 15.8728L9.85915 15.8728L9.89122 16.8723ZM9.13551 17.0814L8.64958 16.2074L8.64957 16.2074L9.13551 17.0814ZM9.04187 17.1364L9.5556 17.9943L9.5556 17.9943L9.04187 17.1364ZM8.74702 17.3129L9.24316 18.1812C9.24905 18.1778 9.25492 18.1744 9.26074 18.1709L8.74702 17.3129ZM8.74696 17.3129L8.25082 16.4447C8.24493 16.4481 8.23907 16.4515 8.23324 16.455L8.74696 17.3129ZM7.75174 17.8111L7.97078 18.7868L7.97078 18.7868L7.75174 17.8111ZM7.04891 17.8168L6.84623 18.796L6.84624 18.796L7.04891 17.8168ZM6.04565 17.3356L6.54493 16.4692H6.54493L6.04565 17.3356ZM5.63423 17.0985L6.13351 16.2321L5.63423 17.0985ZM4.71219 16.4699L3.96605 17.1356L4.71219 16.4699ZM4.36494 15.8571L5.3195 15.5591H5.3195L4.36494 15.8571ZM4.29878 14.7428L3.29892 14.7259L4.29878 14.7428ZM4.30451 14.4032L5.30437 14.4201L5.30437 14.4201L4.30451 14.4032ZM4.30541 14.2889L5.30527 14.2718V14.2718L4.30541 14.2889ZM4.11328 13.5387L4.99751 13.0716L4.99751 13.0716L4.11328 13.5387ZM4.07282 13.4666L3.2055 13.9644L3.20551 13.9644L4.07282 13.4666ZM4.05691 13.4389L4.9248 12.9421L4.92479 12.9421L4.05691 13.4389ZM3.99848 13.3388L4.8488 12.8125L4.8488 12.8125L3.99848 13.3388ZM3.44097 12.7879L2.92511 13.6446L2.92511 13.6446L3.44097 12.7879ZM3.36446 12.7445L2.87895 13.6187L2.879 13.6188L3.36446 12.7445ZM3.34007 12.731L3.82625 11.8571L3.82621 11.8571L3.34007 12.731ZM3.04145 12.5648L2.55531 13.4387L2.55531 13.4387L3.04145 12.5648ZM2.11453 11.9533L1.37935 12.6311L1.37936 12.6311L2.11453 11.9533ZM1.7586 11.3483L0.80953 11.6634L0.80953 11.6634L1.7586 11.3483ZM1.67126 10.2407L2.67126 10.2384L1.67126 10.2407ZM1.6702 9.77227L0.670199 9.77454V9.77454L1.6702 9.77227ZM1.75291 8.65695L2.70282 8.96946V8.96946L1.75291 8.65695ZM2.11046 8.04822L1.37514 7.37051L1.37514 7.37051L2.11046 8.04822ZM3.04471 7.43354L2.55999 6.55887H2.55999L3.04471 7.43354ZM3.34601 7.26657L3.83073 8.14124L3.83073 8.14124L3.34601 7.26657ZM3.36938 7.25364L3.85341 8.12869L3.85342 8.12868L3.36938 7.25364ZM3.43944 7.21408L3.95158 8.07298L3.95159 8.07298L3.43944 7.21408ZM4.00174 6.66154L4.85139 7.18888L4.8514 7.18887L4.00174 6.66154ZM4.03887 6.59839L3.17222 6.09947L3.17222 6.09948L4.03887 6.59839ZM4.05545 6.56962L4.92136 7.06982L4.92136 7.06981L4.05545 6.56962ZM4.10812 6.47678L4.98942 6.94934L4.98942 6.94933L4.10812 6.47678ZM4.30681 5.71368L3.30692 5.69887L3.30692 5.69888L4.30681 5.71368ZM4.30603 5.66245L3.30642 5.69039L3.30642 5.69039L4.30603 5.66245ZM4.30473 5.60711L5.30459 5.59029L5.30459 5.59029L4.30473 5.60711ZM4.29878 5.25322L5.29864 5.2364V5.2364L4.29878 5.25322ZM4.3645 4.14279L3.40966 3.84565V3.84565L4.3645 4.14279ZM4.70975 3.53109L3.96218 2.86691L3.96218 2.86691L4.70975 3.53109ZM5.6224 2.90476L5.12625 2.0365L5.12043 2.03988L5.6224 2.90476ZM5.6224 2.90476L6.11854 3.773C6.12718 3.76807 6.13575 3.763 6.14423 3.75781L5.6224 2.90476ZM5.6269 2.90201L5.12493 2.03712C5.11827 2.04099 5.11165 2.04494 5.10507 2.04896L5.6269 2.90201ZM6.03329 2.66615L5.62731 1.75226C5.59446 1.76686 5.56241 1.78322 5.53132 1.80126L6.03329 2.66615ZM6.03549 2.66517L6.44146 3.57905C6.47432 3.56446 6.50636 3.5481 6.53746 3.53006L6.03549 2.66517ZM7.03992 2.1799L7.24438 3.15878H7.24438L7.03992 2.1799ZM7.74523 2.18478L7.52631 3.16053L7.74523 2.18478ZM8.74458 2.68609L9.25929 1.82872L9.25929 1.82872L8.74458 2.68609ZM9.04131 2.86423L9.55603 2.00687L9.55603 2.00687L9.04131 2.86423ZM9.06616 2.87916L9.5817 2.0223L9.58169 2.02229L9.06616 2.87916ZM9.13459 2.91951L8.64771 3.79297L8.64771 3.79297L9.13459 2.91951ZM9.89204 3.1292L9.85989 4.12868H9.85989L9.89204 3.1292ZM10.1094 3.1292L10.1414 4.12869L10.1414 4.12869L10.1094 3.1292ZM10.8653 2.92046L11.3513 3.79446L11.3513 3.79446L10.8653 2.92046ZM10.9589 2.86548L11.4727 3.72344L11.4727 3.72344L10.9589 2.86548ZM11.2538 2.68893L10.8222 1.78686C10.7942 1.80028 10.7667 1.815 10.7401 1.83098L11.2538 2.68893ZM11.2566 2.68761L11.6881 3.58968C11.7162 3.57626 11.7436 3.56154 11.7703 3.54557L11.2566 2.68761ZM12.2492 2.19089L12.4683 3.1666L12.2492 2.19089ZM12.9519 2.18478L12.7493 3.16403V3.16403L12.9519 2.18478ZM13.9554 2.66615L13.4561 3.53258L13.9554 2.66615ZM14.3669 2.90328L13.8676 3.76972L13.8676 3.76972L14.3669 2.90328ZM15.2885 3.53202L14.5424 4.19782L15.2885 3.53202ZM15.6359 4.14483L14.6813 4.44286V4.44286L15.6359 4.14483ZM15.7012 5.25163L14.7014 5.2348V5.23481L15.7012 5.25163ZM15.6953 5.60601L16.6951 5.62285L16.6951 5.62283L15.6953 5.60601ZM15.6947 5.71436L16.6945 5.69908L16.6945 5.69906L15.6947 5.71436ZM15.8922 6.47596L16.7737 6.00383L16.7737 6.00382L15.8922 6.47596ZM15.9455 6.56991L15.0795 7.07007L15.0799 7.07061L15.9455 6.56991ZM15.9457 6.57022L16.8116 6.07L16.8113 6.06953L15.9457 6.57022ZM15.965 6.60382L15.0979 7.10196L15.0979 7.102L15.965 6.60382ZM16.0002 6.66367L16.8496 6.136V6.136L16.0002 6.66367ZM16.5595 7.21367L17.0734 6.35582L17.0734 6.35581L16.5595 7.21367ZM17.4444 6.56287L17.1392 6.3931L16.167 8.14086L16.4721 8.31063L17.4444 6.56287ZM17.4012 6.5402L17.3998 6.53949L16.5168 8.33401L16.5182 8.33472L17.4012 6.5402ZM17.5144 6.60541L17.5144 6.60541L16.405 8.26951L16.405 8.26952L17.5144 6.60541ZM18.621 7.37047C18.3053 7.02801 17.8825 6.8065 17.4459 6.56359L16.4736 8.31134C17.03 8.62088 17.1042 8.67579 17.1507 8.72623L18.621 7.37047ZM19.1915 8.33823C19.0723 7.97896 18.8777 7.64888 18.621 7.37048L17.1507 8.72623C17.2148 8.79576 17.2635 8.87845 17.2934 8.96835L19.1915 8.33823ZM19.3287 9.7586C19.3276 9.25767 19.3384 8.78054 19.1915 8.33822L17.2934 8.96836C17.3151 9.03374 17.3273 9.12546 17.3287 9.76314L19.3287 9.7586ZM19.3298 10.2371L19.3287 9.7586L17.3287 9.76315L17.3298 10.2416L19.3298 10.2371ZM19.3298 10.2394V10.2394H17.3298V10.2394H19.3298ZM19.1981 11.6573C19.3441 11.2135 19.3309 10.7347 19.3298 10.2371L17.3298 10.2417C17.3313 10.8769 17.3194 10.968 17.2982 11.0323L19.1981 11.6573ZM18.6261 12.631C18.8844 12.3507 19.0791 12.0188 19.1981 11.6573L17.2982 11.0323C17.2684 11.123 17.2198 11.2058 17.1554 11.2755L18.6261 12.631ZM17.4408 13.4428C17.8816 13.1984 18.3083 12.9758 18.6261 12.631L17.1554 11.2755C17.1085 11.3264 17.0331 11.3821 16.4713 11.6934L17.4408 13.4428ZM17.1395 13.6097L17.4408 13.4428L16.4713 11.6934L16.17 11.8604L17.1395 13.6097ZM17.0735 13.6431L17.0751 13.6424L16.2344 11.8277L16.2328 11.8284L17.0735 13.6431ZM17.0741 13.6462C17.0798 13.6428 17.0868 13.6387 17.1379 13.6105L16.1684 11.8611C16.1279 11.8836 16.0889 11.9051 16.0498 11.9284L17.0741 13.6462ZM16.8491 13.8673C16.9055 13.7765 16.9827 13.7007 17.0741 13.6462L16.0498 11.9284C15.6832 12.147 15.3747 12.4504 15.1498 12.8126L16.8491 13.8673ZM16.8108 13.9321C16.8345 13.8911 16.8427 13.8777 16.8491 13.8673L15.1498 12.8126C15.1285 12.847 15.1089 12.8799 15.079 12.9317L16.8108 13.9321ZM16.8054 13.9414L16.8054 13.9413L15.0843 12.9226L15.0842 12.9228L16.8054 13.9414ZM16.7735 13.9974C16.7767 13.9913 16.781 13.9837 16.8107 13.9322L15.0788 12.9319C15.0553 12.9728 15.0325 13.0119 15.0109 13.0522L16.7735 13.9974ZM16.6945 14.3029C16.6961 14.1958 16.7234 14.0909 16.7735 13.9973L15.0109 13.0522C14.8092 13.4284 14.7011 13.8474 14.6948 14.2733L16.6945 14.3029ZM16.6951 14.3778C16.6943 14.3281 16.6944 14.3136 16.6945 14.3029L14.6948 14.2732C14.6941 14.3152 14.6944 14.354 14.6954 14.4115L16.6951 14.3778ZM16.7013 14.7441L16.6951 14.3778L14.6954 14.4115L14.7016 14.7777L16.7013 14.7441ZM16.5915 16.1562C16.7295 15.7127 16.7096 15.2374 16.7013 14.7441L14.7016 14.7777C14.7122 15.4076 14.7018 15.4979 14.6818 15.5619L16.5915 16.1562ZM16.0388 17.1349C16.2905 16.8516 16.4789 16.5181 16.5915 16.1562L14.6818 15.5619C14.6537 15.6523 14.6067 15.7356 14.5437 15.8065L16.0388 17.1349ZM14.8799 17.9623C15.3109 17.7122 15.7295 17.483 16.0388 17.1349L14.5437 15.8065C14.4984 15.8575 14.4254 15.9136 13.876 16.2325L14.8799 17.9623ZM14.4674 18.2017L14.8799 17.9623L13.876 16.2325L13.4635 16.4719L14.4674 18.2017ZM14.5023 18.1805L14.5023 18.1805L13.4286 16.4932L13.4286 16.4932L14.5023 18.1805ZM13.1653 18.8011C13.6237 18.7053 14.0331 18.4538 14.4674 18.2017L13.4635 16.4719C12.9097 16.7933 12.8238 16.8293 12.7564 16.8433L13.1653 18.8011ZM12.0365 18.7924C12.4069 18.8755 12.7917 18.8791 13.1653 18.8011L12.7564 16.8433C12.6642 16.8626 12.5681 16.8619 12.4743 16.8409L12.0365 18.7924ZM10.7418 18.1731C11.174 18.4326 11.5793 18.6898 12.0365 18.7924L12.4743 16.8409C12.4067 16.8257 12.3212 16.7886 11.7712 16.4584L10.7418 18.1731ZM10.4283 17.9849L10.7418 18.1731L11.7712 16.4584L11.4578 16.2702L10.4283 17.9849ZM10.4285 17.985L10.4285 17.985L11.4575 16.27L11.4575 16.27L10.4285 17.985ZM10.3793 17.9557C10.3824 17.9574 10.3872 17.9602 10.428 17.9847L11.458 16.2703C11.4269 16.2516 11.3908 16.2298 11.3531 16.2088L10.3793 17.9557ZM10.0758 17.8718C10.1826 17.8752 10.2868 17.9042 10.3793 17.9557L11.353 16.2088C10.981 16.0014 10.5648 15.8865 10.1401 15.8728L10.0758 17.8718ZM9.9995 17.8715C10.0602 17.8715 10.0688 17.8716 10.0758 17.8718L10.1401 15.8728C10.0935 15.8714 10.0478 15.8715 9.9995 15.8715V17.8715ZM9.92325 17.8718C9.9303 17.8716 9.93897 17.8715 9.9995 17.8715V15.8715C9.9513 15.8715 9.90561 15.8714 9.8592 15.8728L9.92325 17.8718ZM9.62145 17.9554C9.71454 17.9037 9.81761 17.8752 9.9233 17.8718L9.85915 15.8728C9.43446 15.8865 9.02028 16.0013 8.64958 16.2074L9.62145 17.9554ZM9.5556 17.9943C9.60452 17.965 9.61443 17.9593 9.62145 17.9554L8.64957 16.2074C8.60985 16.2295 8.57252 16.2518 8.52815 16.2784L9.5556 17.9943ZM9.26074 18.1709L9.5556 17.9943L8.52815 16.2784L8.2333 16.455L9.26074 18.1709ZM9.2431 18.1812L9.24316 18.1812L8.25088 16.4447L8.25082 16.4447L9.2431 18.1812ZM7.97078 18.7868C8.42617 18.6845 8.83059 18.4284 9.26068 18.1709L8.23324 16.455C7.68517 16.7832 7.59991 16.8203 7.5327 16.8353L7.97078 18.7868ZM6.84624 18.796C7.21711 18.8728 7.60046 18.8699 7.97078 18.7868L7.5327 16.8353C7.44061 16.856 7.34479 16.8568 7.25157 16.8376L6.84624 18.796ZM5.54636 18.202C5.98107 18.4525 6.38922 18.7015 6.84623 18.796L7.25158 16.8376C7.18403 16.8236 7.09831 16.788 6.54493 16.4692L5.54636 18.202ZM5.13494 17.965L5.54636 18.202L6.54493 16.4692L6.13351 16.2321L5.13494 17.965ZM3.96605 17.1356C4.27759 17.4848 4.69922 17.7139 5.13494 17.965L6.13351 16.2321C5.57836 15.9122 5.50433 15.8556 5.45833 15.8041L3.96605 17.1356ZM3.41037 16.155C3.52361 16.5178 3.71297 16.852 3.96605 17.1356L5.45833 15.8041C5.3951 15.7332 5.34783 15.6498 5.3195 15.5591L3.41037 16.155ZM3.29892 14.7259C3.2904 15.2306 3.27106 15.7088 3.41037 16.155L5.3195 15.5591C5.29878 15.4927 5.28785 15.3985 5.29863 14.7597L3.29892 14.7259ZM3.30465 14.3863L3.29892 14.7259L5.29863 14.7597L5.30437 14.4201L3.30465 14.3863ZM3.30556 14.3059C3.30569 14.3139 3.3057 14.3244 3.30465 14.3863L5.30437 14.4201C5.30526 14.367 5.30609 14.3204 5.30527 14.2718L3.30556 14.3059ZM3.22905 14.0057C3.2772 14.0969 3.30374 14.1997 3.30556 14.3059L5.30527 14.2718C5.29815 13.8548 5.19381 13.4433 4.99751 13.0716L3.22905 14.0057ZM3.20551 13.9644C3.21539 13.9816 3.22082 13.991 3.22507 13.9986C3.22877 14.0052 3.22948 14.0065 3.22905 14.0057L4.99751 13.0716C4.97708 13.033 4.95593 12.9964 4.94013 12.9688L3.20551 13.9644ZM3.18902 13.9356C3.1952 13.9464 3.20074 13.9561 3.2055 13.9644L4.94013 12.9688C4.93531 12.9604 4.93032 12.9517 4.9248 12.9421L3.18902 13.9356ZM3.14816 13.865C3.15212 13.8714 3.15684 13.8794 3.18903 13.9356L4.92479 12.9421C4.89916 12.8973 4.87497 12.8548 4.8488 12.8125L3.14816 13.865ZM2.92511 13.6446C3.01578 13.6992 3.09234 13.7748 3.14817 13.865L4.8488 12.8125C4.62581 12.4522 4.32002 12.15 3.95683 11.9313L2.92511 13.6446ZM2.879 13.6188C2.89771 13.6292 2.90817 13.635 2.91644 13.6396C2.92367 13.6437 2.92545 13.6448 2.92511 13.6446L3.95683 11.9313C3.91832 11.9081 3.88022 11.8871 3.84991 11.8702L2.879 13.6188ZM2.85389 13.6048C2.86314 13.61 2.87158 13.6146 2.87895 13.6187L3.84996 11.8703C3.84243 11.8661 3.8347 11.8618 3.82625 11.8571L2.85389 13.6048ZM2.55531 13.4387L2.85393 13.6048L3.82621 11.8571L3.5276 11.691L2.55531 13.4387ZM1.37936 12.6311C1.69523 12.9737 2.11728 13.195 2.55531 13.4387L3.5276 11.691C2.97061 11.3811 2.89646 11.3261 2.84971 11.2754L1.37936 12.6311ZM0.80953 11.6634C0.928266 12.0211 1.12152 12.3515 1.37935 12.6311L2.84971 11.2754C2.78673 11.2071 2.73804 11.1248 2.70767 11.0333L0.80953 11.6634ZM0.671263 10.243C0.672408 10.7472 0.662942 11.2218 0.80953 11.6634L2.70767 11.0333C2.68571 10.9671 2.6727 10.8728 2.67126 10.2384L0.671263 10.243ZM0.670199 9.77454L0.671263 10.243L2.67126 10.2384L2.67019 9.77L0.670199 9.77454ZM0.802995 8.34444C0.656593 8.78944 0.66905 9.26871 0.670199 9.77454L2.67019 9.77C2.66874 9.12955 2.68105 9.03563 2.70282 8.96946L0.802995 8.34444ZM1.37514 7.37051C1.11683 7.65078 0.921912 7.98298 0.802995 8.34444L2.70282 8.96946C2.73267 8.87872 2.78148 8.79571 2.84579 8.72594L1.37514 7.37051ZM2.55999 6.55887C2.11876 6.80339 1.69284 7.02579 1.37514 7.37051L2.84579 8.72594C2.89277 8.67496 2.96804 8.61931 3.52942 8.30822L2.55999 6.55887ZM2.8613 6.3919L2.55999 6.55887L3.52942 8.30822L3.83073 8.14124L2.8613 6.3919ZM2.88534 6.37859C2.87826 6.38251 2.87019 6.38697 2.8613 6.3919L3.83073 8.14124C3.83884 8.13675 3.84626 8.13264 3.85341 8.12869L2.88534 6.37859ZM2.9273 6.35518C2.92776 6.35491 2.92618 6.35586 2.91952 6.35961C2.91194 6.36387 2.90238 6.36916 2.88533 6.3786L3.85342 8.12868C3.8809 8.11348 3.91612 8.09413 3.95158 8.07298L2.9273 6.35518ZM3.15208 6.1342C3.09569 6.22506 3.01865 6.30071 2.9273 6.35518L3.95159 8.07298C4.31825 7.85435 4.62658 7.5511 4.85139 7.18888L3.15208 6.1342ZM3.17222 6.09948C3.16351 6.1146 3.15886 6.12266 3.15515 6.12901C3.15198 6.13442 3.15144 6.13525 3.15208 6.13421L4.8514 7.18887C4.87264 7.15465 4.89173 7.12125 4.90552 7.09729L3.17222 6.09948ZM3.18954 6.06942C3.18292 6.08089 3.17711 6.09097 3.17222 6.09947L4.90552 7.0973C4.91044 7.08875 4.91557 7.07984 4.92136 7.06982L3.18954 6.06942ZM3.22682 6.00421C3.22356 6.0103 3.21938 6.01776 3.18954 6.06943L4.92136 7.06981C4.94512 7.02869 4.96778 6.9897 4.98942 6.94934L3.22682 6.00421ZM3.30692 5.69888C3.30537 5.80299 3.27837 5.90808 3.22682 6.00422L4.98942 6.94933C5.18973 6.57577 5.30035 6.15728 5.3067 5.72849L3.30692 5.69888ZM3.30642 5.69039C3.30657 5.69579 3.30667 5.69947 3.30675 5.70272C3.30683 5.70586 3.30687 5.70747 3.30688 5.70822C3.30691 5.7096 3.30682 5.70564 3.30692 5.69887L5.3067 5.72849C5.3073 5.68772 5.30606 5.64976 5.30564 5.6345L3.30642 5.69039ZM3.30487 5.62393C3.30535 5.65249 3.30599 5.67506 3.30642 5.69039L5.30564 5.63451C5.30523 5.61985 5.30487 5.60685 5.30459 5.59029L3.30487 5.62393ZM3.29892 5.27005L3.30487 5.62393L5.30459 5.59029L5.29864 5.2364L3.29892 5.27005ZM3.40966 3.84565C3.27116 4.2907 3.29046 4.76722 3.29892 5.27005L5.29864 5.2364C5.28792 4.59967 5.29874 4.50611 5.31933 4.43993L3.40966 3.84565ZM3.96218 2.86691C3.71021 3.15051 3.52214 3.48423 3.40966 3.84565L5.31933 4.43993C5.34761 4.34907 5.39468 4.26578 5.45732 4.19527L3.96218 2.86691ZM5.12043 2.03988C4.68978 2.28982 4.27145 2.51881 3.96218 2.86691L5.45732 4.19527C5.50257 4.14434 5.57529 4.08833 6.12437 3.76965L5.12043 2.03988ZM5.12626 2.03652L5.12626 2.03652L6.11854 3.77301L6.11854 3.773L5.12626 2.03652ZM5.10507 2.04896L5.10057 2.05171L6.14423 3.75781L6.14873 3.75506L5.10507 2.04896ZM5.53132 1.80126L5.12493 2.03712L6.12887 3.76689L6.53526 3.53103L5.53132 1.80126ZM5.62951 1.75129L5.62731 1.75226L6.43926 3.58003L6.44146 3.57905L5.62951 1.75129ZM6.83546 1.20102C6.37702 1.29678 5.96821 1.54799 5.53352 1.80029L6.53746 3.53006C7.0914 3.20855 7.17691 3.17287 7.24438 3.15878L6.83546 1.20102ZM7.96415 1.20904C7.59178 1.12549 7.20713 1.12339 6.83546 1.20102L7.24438 3.15878C7.33849 3.13912 7.4344 3.1399 7.52631 3.16053L7.96415 1.20904ZM9.25929 1.82872C8.82751 1.5695 8.42145 1.31164 7.96415 1.20904L7.52631 3.16053C7.59379 3.17567 7.67953 3.21306 8.22986 3.54345L9.25929 1.82872ZM9.55603 2.00687L9.25929 1.82872L8.22986 3.54345L8.52659 3.72159L9.55603 2.00687ZM9.58169 2.02229C9.57421 2.01779 9.56561 2.01262 9.55603 2.00687L8.52659 3.72159C8.53525 3.72679 8.5431 3.73151 8.55063 3.73604L9.58169 2.02229ZM9.62148 2.04604C9.62207 2.04637 9.62064 2.0456 9.61439 2.04189C9.60718 2.03763 9.59813 2.03219 9.5817 2.0223L8.55062 3.73603C8.57702 3.75192 8.61133 3.7727 8.64771 3.79297L9.62148 2.04604ZM9.92419 2.12972C9.81735 2.12628 9.71392 2.09757 9.62148 2.04604L8.64771 3.79297C9.01978 4.00037 9.43519 4.11502 9.85989 4.12868L9.92419 2.12972ZM10.0011 2.13006C9.94066 2.13006 9.93104 2.12994 9.92419 2.12972L9.85989 4.12868C9.90637 4.13018 9.95347 4.13006 10.0011 4.13006V2.13006ZM10.0773 2.12971C10.0703 2.12994 10.0616 2.13006 10.0011 2.13006V4.13006C10.0493 4.13006 10.095 4.13018 10.1414 4.12869L10.0773 2.12971ZM10.3794 2.04647C10.2873 2.09769 10.1841 2.12629 10.0773 2.12972L10.1414 4.12869C10.565 4.11509 10.9796 4.0011 11.3513 3.79446L10.3794 2.04647ZM10.4452 2.00753C10.3946 2.03784 10.3859 2.04287 10.3794 2.04647L11.3513 3.79446C11.3915 3.77207 11.43 3.74896 11.4727 3.72344L10.4452 2.00753ZM10.7401 1.83098L10.4452 2.00753L11.4727 3.72344L11.7675 3.54689L10.7401 1.83098ZM10.825 1.78554L10.8222 1.78686L11.6854 3.59101L11.6881 3.58968L10.825 1.78554ZM12.0302 1.21517C11.5752 1.31731 11.1717 1.57284 10.7428 1.82965L11.7703 3.54557C12.3168 3.2183 12.4014 3.18162 12.4683 3.1666L12.0302 1.21517ZM13.1546 1.20554C12.7827 1.12857 12.3995 1.13227 12.0302 1.21517L12.4683 3.1666C12.5614 3.1457 12.6571 3.14495 12.7493 3.16403L13.1546 1.20554ZM14.4546 1.79971C14.0201 1.54933 13.6117 1.30014 13.1546 1.20554L12.7493 3.16403C12.8168 3.178 12.9025 3.21359 13.4561 3.53258L14.4546 1.79971ZM14.8661 2.03684L14.4546 1.79971L13.4561 3.53258L13.8676 3.76972L14.8661 2.03684ZM16.0346 2.86622C15.7232 2.51726 15.3027 2.28838 14.8661 2.03684L13.8676 3.76972C14.4219 4.08915 14.4962 4.14611 14.5424 4.19782L16.0346 2.86622ZM16.5904 3.8468C16.4771 3.48384 16.2875 3.14965 16.0346 2.86622L14.5424 4.19782C14.6057 4.26885 14.653 4.35233 14.6813 4.44286L16.5904 3.8468ZM16.7011 5.26845C16.7095 4.76999 16.7295 4.29234 16.5904 3.84679L14.6813 4.44286C14.7016 4.50784 14.7121 4.59906 14.7014 5.2348L16.7011 5.26845ZM16.6951 5.62283L16.7011 5.26845L14.7014 5.23481L14.6954 5.58919L16.6951 5.62283ZM16.6945 5.69906C16.6944 5.68807 16.6943 5.67305 16.6951 5.62285L14.6954 5.58917C14.6944 5.64758 14.6941 5.68719 14.6948 5.72966L16.6945 5.69906ZM16.7737 6.00382C16.7232 5.90954 16.6962 5.80486 16.6945 5.69908L14.6948 5.72964C14.7013 6.15568 14.8101 6.57352 15.0107 6.9481L16.7737 6.00382ZM16.8114 6.06975C16.7813 6.01765 16.777 6.00993 16.7737 6.00383L15.0107 6.9481C15.0326 6.98898 15.0557 7.02871 15.0795 7.07007L16.8114 6.06975ZM16.8113 6.06953L16.8111 6.06921L15.0799 7.07061L15.08 7.07092L16.8113 6.06953ZM16.8321 6.10569C16.8265 6.09593 16.8196 6.08393 16.8116 6.07L15.0798 7.07045C15.0865 7.08205 15.0923 7.09215 15.0979 7.10196L16.8321 6.10569ZM16.8496 6.136C16.8507 6.13779 16.8505 6.13757 16.8477 6.13275C16.8444 6.12703 16.8402 6.11975 16.8321 6.10565L15.0979 7.102C15.1104 7.12377 15.1295 7.1572 15.1507 7.19133L16.8496 6.136ZM17.0734 6.35581C16.9817 6.3009 16.9052 6.22551 16.8496 6.136L15.1507 7.19133C15.3751 7.5525 15.6822 7.85381 16.0456 8.07154L17.0734 6.35581ZM17.1393 6.3931C17.0925 6.36708 17.0814 6.36059 17.0734 6.35582L16.0456 8.07152C16.0834 8.09418 16.1189 8.11415 16.167 8.14086L17.1393 6.3931ZM4.83333 10.001C4.83333 12.8544 7.14653 15.1676 10 15.1676V13.1676C8.2511 13.1676 6.83333 11.7499 6.83333 10.001H4.83333ZM10 4.83431C7.14653 4.83431 4.83333 7.14751 4.83333 10.001H6.83333C6.83333 8.25208 8.2511 6.83431 10 6.83431V4.83431ZM15.1667 10.001C15.1667 7.14751 12.8535 4.83431 10 4.83431V6.83431C11.7489 6.83431 13.1667 8.25208 13.1667 10.001H15.1667ZM10 15.1676C12.8535 15.1676 15.1667 12.8544 15.1667 10.001H13.1667C13.1667 11.7499 11.7489 13.1676 10 13.1676V15.1676Z" fill="#9B9C9E"/>
</svg>
