<svg width="24" height="24" viewBox="0 0 24 24" fill="none" xmlns="http://www.w3.org/2000/svg">
<path fill-rule="evenodd" clip-rule="evenodd" d="M15.9144 14.5166C16.3049 14.9071 16.9381 14.9071 17.3286 14.5166L19.562 12.2832C20.5807 11.2645 21.1707 9.87405 21.16 8.4068C21.1493 6.95655 20.5783 5.55838 19.5098 4.52002C18.4751 3.4882 17.0828 2.91893 15.6344 2.90828C14.1829 2.89762 12.7877 3.44918 11.7579 4.47899L9.52442 6.71245C9.1339 7.10297 9.1339 7.73613 9.52442 8.12666C9.91495 8.51718 10.5481 8.51718 10.9386 8.12666L13.1721 5.89322C13.8106 5.25471 14.6856 4.90136 15.6197 4.90823C16.5544 4.9151 17.4436 5.28221 18.1012 5.93982L18.1124 5.95082C18.7878 6.60539 19.1532 7.48864 19.16 8.4215C19.1668 9.33987 18.7974 10.2194 18.1478 10.869L15.9144 13.1024C15.5239 13.4929 15.5239 14.1261 15.9144 14.5166ZM13.0616 15.9007L10.8281 18.1341C10.8281 18.1341 10.8281 18.1341 10.8281 18.1341C10.1873 18.7749 9.33832 19.1261 8.38045 19.1191C7.44774 19.1122 6.56427 18.7469 5.90981 18.0715C5.90252 18.064 5.89512 18.0566 5.8876 18.0493C5.21219 17.3947 4.84684 16.5115 4.83998 15.5786C4.83323 14.6602 5.20259 13.7807 5.85216 13.1312L8.08562 10.8977C8.47614 10.5072 8.47614 9.87401 8.08562 9.48349C7.69509 9.09297 7.06193 9.09297 6.67141 9.48349L4.43795 11.7169C3.41925 12.7356 2.82925 14.1261 2.84003 15.5933C2.85067 17.041 3.41972 18.4368 4.48448 19.4746C5.52227 20.5394 6.91832 21.1084 8.36576 21.119C9.84753 21.1299 11.2147 20.5759 12.2423 19.5483L14.4758 17.3149C14.8663 16.9243 14.8663 16.2912 14.4758 15.9007C14.0853 15.5101 13.4521 15.5101 13.0616 15.9007ZM7.906 16.0343C8.29652 16.4249 8.92969 16.4249 9.32021 16.0343L16.0206 9.33396C16.4111 8.94344 16.4111 8.31028 16.0206 7.91975C15.63 7.52923 14.9969 7.52923 14.6064 7.91975L7.906 14.6201C7.51547 15.0106 7.51547 15.6438 7.906 16.0343Z" fill="white"/>
</svg>
