<svg width="24" height="24" viewBox="0 0 24 24" fill="none" xmlns="http://www.w3.org/2000/svg">
<path fill-rule="evenodd" clip-rule="evenodd" d="M4.35911 10.4249C4.25479 10.9336 4.2 11.4604 4.2 12C4.2 12.7213 4.2979 13.4197 4.48112 14.0826C4.55904 14.0456 4.64619 14.0249 4.73818 14.0249H7.82911C7.76084 13.3729 7.725 12.6948 7.725 12C7.725 11.4897 7.74433 10.9885 7.78163 10.5H4.65C4.54445 10.5 4.44527 10.4727 4.35911 10.4249ZM4.67995 9.3H7.91263C8.10087 7.98521 8.42408 6.79721 8.85169 5.81981C9.046 5.37567 9.26547 4.96679 9.50939 4.60609C7.27525 5.35836 5.49361 7.09483 4.67995 9.3ZM12 3C7.02944 3 3 7.02944 3 12C3 16.9706 7.02944 21 12 21C16.9706 21 21 16.9706 21 12C21 7.02944 16.9706 3 12 3ZM12 4.2C11.6911 4.2 11.3495 4.34057 10.9866 4.69148C10.6207 5.04519 10.2638 5.58598 9.95108 6.30079C9.58982 7.12652 9.30324 8.14846 9.12578 9.3H14.8742C14.6968 8.14846 14.4102 7.12652 14.0489 6.30079C13.7362 5.58598 13.3793 5.04519 13.0134 4.69148C12.6505 4.34057 12.3089 4.2 12 4.2ZM16.0874 9.3C15.8991 7.98521 15.5759 6.79721 15.1483 5.81981C14.954 5.37567 14.7345 4.96679 14.4906 4.60609C16.7247 5.35836 18.5064 7.09483 19.32 9.3H16.0874ZM15.0147 10.5H8.98534C8.94581 10.9847 8.925 11.4861 8.925 12C8.925 12.7019 8.96382 13.3803 9.03611 14.0249H14.9639C15.0362 13.3803 15.075 12.7019 15.075 12C15.075 11.4861 15.0542 10.9847 15.0147 10.5ZM16.1709 14.0249C16.2392 13.3729 16.275 12.6948 16.275 12C16.275 11.4897 16.2557 10.9885 16.2184 10.5H19.35C19.4555 10.5 19.5547 10.4727 19.6409 10.4249C19.7452 10.9336 19.8 11.4604 19.8 12C19.8 12.703 19.707 13.3843 19.5326 14.0323C19.5018 14.0274 19.4703 14.0249 19.4382 14.0249H16.1709ZM14.7841 15.2249H9.21585C9.3937 16.1631 9.64571 17.0012 9.95108 17.6992C10.2638 18.414 10.6207 18.9548 10.9866 19.3085C11.3495 19.6594 11.6911 19.8 12 19.8C12.3089 19.8 12.6505 19.6594 13.0134 19.3085C13.3793 18.9548 13.7362 18.414 14.0489 17.6992C14.3543 17.0012 14.6063 16.1631 14.7841 15.2249ZM14.4906 19.3939C14.7345 19.0332 14.954 18.6243 15.1483 18.1802C15.5182 17.3346 15.81 16.3314 16.0039 15.2249H19.1042C18.2156 17.1793 16.5443 18.7024 14.4906 19.3939ZM9.50938 19.3939C9.26547 19.0332 9.046 18.6243 8.85169 18.1802C8.48176 17.3346 8.18997 16.3314 7.9961 15.2249H4.8958C5.78438 17.1793 7.45571 18.7024 9.50938 19.3939Z" fill="#E9EBEE"/>
</svg>
