<svg width="24" height="24" viewBox="0 0 24 24" fill="none" xmlns="http://www.w3.org/2000/svg">
<path fill-rule="evenodd" clip-rule="evenodd" d="M15.1155 3.73816L13.8946 2.69766C12.803 1.76744 11.1968 1.76746 10.1052 2.69766L8.88413 3.73819C8.7368 3.86374 8.55346 3.93968 8.36024 3.95511L6.7624 4.08255C5.33364 4.19657 4.19646 5.33119 4.08222 6.76155L3.95429 8.36068C3.93875 8.55542 3.86291 8.73824 3.73841 8.88438L2.69743 10.1056C1.76708 11.1973 1.76787 12.8027 2.69772 13.894L3.73776 15.1152C3.86392 15.2632 3.93984 15.4468 3.95519 15.6391L4.08311 17.2382C4.19724 18.6671 5.331 19.8029 6.76125 19.917L8.36074 20.0445C8.5538 20.0599 8.73702 20.1358 8.88444 20.2614L10.1051 21.302C11.1968 22.2323 12.8032 22.2319 13.8947 21.3017L15.1153 20.2613C15.2624 20.136 15.4454 20.0601 15.639 20.0447L17.2386 19.917C18.669 19.8029 19.8026 18.6667 19.9166 17.2379L20.0445 15.6388C20.0599 15.4463 20.136 15.2625 20.262 15.1147L21.302 13.894C22.2323 12.8023 22.2321 11.1967 21.3019 10.1052L20.2618 8.88456C20.1356 8.73637 20.0596 8.55279 20.0442 8.36068L19.9171 6.76136C19.803 5.3314 18.6671 4.1967 17.2378 4.08264L15.6388 3.9552C15.4461 3.93981 15.2633 3.86408 15.1155 3.73816ZM15.7071 10.7069C16.0976 10.3164 16.0976 9.68323 15.7071 9.29271C15.3166 8.90219 14.6834 8.90219 14.2929 9.29271L11 12.5856L9.70711 11.2927C9.31658 10.9022 8.68342 10.9022 8.29289 11.2927C7.90237 11.6832 7.90237 12.3164 8.29289 12.7069L10.2929 14.7069C10.6834 15.0974 11.3166 15.0974 11.7071 14.7069L15.7071 10.7069Z" fill="#B9BABD"/>
</svg>
