<svg width="20" height="20" viewBox="0 0 20 20" fill="none" xmlns="http://www.w3.org/2000/svg">
<path d="M10 7.5007V10.834M3.64909 12.6672C2.89123 13.9799 2.51241 14.6364 2.56901 15.175C2.61839 15.6448 2.86493 16.0715 3.24707 16.3492C3.68503 16.6674 4.44242 16.6674 5.95711 16.6674H14.0429C15.5576 16.6674 16.3149 16.6674 16.7528 16.3492C17.135 16.0715 17.3816 15.6448 17.431 15.175C17.4876 14.6364 17.1089 13.9799 16.351 12.6672L12.3096 5.6672C11.5517 4.35455 11.1726 3.69834 10.6779 3.47808C10.2464 3.28595 9.75334 3.28595 9.32183 3.47808C8.82732 3.69824 8.44845 4.35446 7.69122 5.66602L3.64909 12.6672ZM10.0423 13.334V13.4174L9.9585 13.4175V13.334H10.0423Z" stroke="#F33737" stroke-width="1.6" stroke-linecap="round" stroke-linejoin="round"/>
</svg>
