<svg width="24" height="24" viewBox="0 0 24 24" fill="none" xmlns="http://www.w3.org/2000/svg">
<path fill-rule="evenodd" clip-rule="evenodd" d="M2.60234 11.0902C8.07842 8.63465 11.73 7.01581 13.5571 6.23367C18.7737 4.00048 19.8577 3.61256 20.5642 3.59975C20.7196 3.59693 21.0671 3.63656 21.2921 3.82452C21.4822 3.98323 21.5345 4.19762 21.5595 4.34809C21.5845 4.49856 21.6157 4.84134 21.5909 5.10918C21.3082 8.16624 20.085 15.5849 19.4627 19.0089C19.1994 20.4577 18.6809 20.9434 18.1789 20.991C17.0881 21.0943 16.2597 20.249 15.2032 19.5362C13.5499 18.4208 12.6159 17.7264 11.0111 16.638C9.15649 15.3801 10.3588 14.6888 11.4157 13.5589C11.6923 13.2632 16.4986 8.76379 16.5917 8.35562C16.6033 8.30457 16.6141 8.11429 16.5043 8.01381C16.3944 7.91334 16.2323 7.94769 16.1153 7.97502C15.9495 8.01376 13.3084 9.81045 8.19191 13.3651C7.44223 13.8949 6.7632 14.1531 6.1548 14.1396C5.4841 14.1247 4.19393 13.7493 3.23483 13.4284C2.05844 13.0348 1.12348 12.8267 1.20489 12.1583C1.2473 11.8102 1.71312 11.4541 2.60234 11.0902Z" fill="#E9EBEE"/>
</svg>
