<svg width="200" height="40" viewBox="0 0 200 40" fill="none" xmlns="http://www.w3.org/2000/svg">
<path d="M61.0391 8.61289H68.2468V34.9629H74.0131V8.61289H81.2209V4.46289H61.0391V8.61289Z" fill="#2D3EBA"/>
<path d="M135.468 4.46289V8.61289V17.6379V21.7879V30.8129V34.9629H141.221H151.312V30.8129H141.221V21.7879H151.312V17.6379H141.221V8.61289H151.312V4.46289H141.221H135.468Z" fill="#2D3EBA"/>
<path d="M178.688 4.46289V8.61289H185.896V34.9629H191.649V8.61289H198.857V4.46289H178.688Z" fill="#2D3EBA"/>
<path d="M93.4677 9.99922H92.7534C91.1689 9.99922 89.7014 10.4742 88.4287 11.2742V4.44922H84.104V34.9617H89.143V18.3242C89.143 16.4117 90.7534 14.8617 92.7404 14.8617H93.4547C95.4417 14.8617 97.0521 16.4117 97.0521 18.3242V34.9617H102.091V18.3242C102.091 13.7242 98.2209 9.99922 93.4417 9.99922H93.4677Z" fill="#2D3EBA"/>
<path d="M115.701 8.61328H114.559C109.299 8.61328 105.052 12.7133 105.052 17.7633V25.8008C105.052 30.8633 109.312 34.9508 114.559 34.9508H115.701C120.961 34.9508 125.208 30.8508 125.208 25.8008V24.7883H120.169V25.8008C120.169 28.1758 118.169 30.1008 115.701 30.1008H114.559C112.091 30.1008 110.091 28.1758 110.091 25.8008V22.0133H125.221V17.7633C125.221 12.7008 120.961 8.61328 115.714 8.61328H115.701ZM120.169 18.5508H110.078V17.7758C110.078 15.4008 112.078 13.4758 114.546 13.4758H115.688C118.156 13.4758 120.156 15.4008 120.156 17.7758V18.5508H120.169Z" fill="#2D3EBA"/>
<path d="M167.65 3.7625H163.779C159.273 3.7625 155.624 7.275 155.624 11.6125V13.0625C155.624 13.9625 156.299 16.325 157.52 17.0625L168.364 24.95C169.455 25.6 170.091 26.775 170.026 28.0125C169.961 29.25 168.883 30.1125 167.65 30.1125H163.779C162.455 30.1125 161.39 29.0875 161.39 27.8125V24.0875C161.39 24.0875 161.39 24.075 161.377 24.075H155.649C155.649 24.075 155.637 24.075 155.637 24.0875V27.8125C155.637 32.15 159.286 35.6625 163.792 35.6625H167.662C172.169 35.6625 175.818 32.15 175.818 27.8125V25.7375C175.818 24.1875 174.468 22.75 173.922 22.3625L163.065 14.4625C162.039 13.85 161.416 12.7625 161.416 11.6C161.416 10.325 162.481 9.3 163.805 9.3H167.675C169 9.3 170.065 10.325 170.065 11.6V15.325C170.065 15.325 170.065 15.3375 170.078 15.3375H175.805C175.805 15.3375 175.818 15.3375 175.818 15.325V11.6C175.818 7.2625 172.169 3.75 167.662 3.75L167.65 3.7625Z" fill="#2D3EBA"/>
<path d="M43.4573 15.1693H23.3002L6.41699 9.58789H27.4481L43.4573 15.1693Z" fill="#454890"/>
<path d="M39.0736 30.3372H18.9303L2.04712 24.7559H23.0783L39.0736 30.3372Z" fill="#454890"/>
<path d="M6.41699 9.58713H45.0249L45.1775 9.10644C46.5648 4.57992 43.1659 0 38.4076 0H9.37188L6.41699 9.57378V9.58713Z" fill="url(#paint0_linear_11_4487)"/>
<path d="M2.04712 24.7551H40.5025L43.4574 15.168H5.00203L2.04712 24.7551Z" fill="url(#paint1_linear_11_4487)"/>
<path d="M7.08284 39.9234H36.1186L39.0735 30.3496H0.465521L0.31292 30.8303C-1.07436 35.3568 2.32448 39.9367 7.08284 39.9367V39.9234Z" fill="url(#paint2_linear_11_4487)"/>
<defs>
<linearGradient id="paint0_linear_11_4487" x1="6.41699" y1="4.79356" x2="45.4966" y2="4.79356" gradientUnits="userSpaceOnUse">
<stop stop-color="#FF9445"/>
<stop offset="0.33" stop-color="#FA147A"/>
<stop offset="1" stop-color="#2E83E6"/>
</linearGradient>
<linearGradient id="paint1_linear_11_4487" x1="2.04712" y1="19.9615" x2="43.4574" y2="19.9615" gradientUnits="userSpaceOnUse">
<stop stop-color="#FF9445"/>
<stop offset="0.33" stop-color="#FA147A"/>
<stop offset="1" stop-color="#2E83E6"/>
</linearGradient>
<linearGradient id="paint2_linear_11_4487" x1="0.00771943" y1="35.1298" x2="39.0735" y2="35.1298" gradientUnits="userSpaceOnUse">
<stop stop-color="#FF9445"/>
<stop offset="0.33" stop-color="#FA147A"/>
<stop offset="1" stop-color="#2E83E6"/>
</linearGradient>
</defs>
</svg>
