<svg width="154" height="32" viewBox="0 0 154 32" fill="none" xmlns="http://www.w3.org/2000/svg">
<path d="M47.03 6.89031H52.58V27.9703H57.02V6.89031H62.57V3.57031H47.03V6.89031Z" fill="white"/>
<path d="M104.34 3.57031V6.89031V14.1103V17.4303V24.6503V27.9703H108.77H116.54V24.6503H108.77V17.4303H116.54V14.1103H108.77V6.89031H116.54V3.57031H108.77H104.34Z" fill="white"/>
<path d="M137.62 3.57031V6.89031H143.17V27.9703H147.6V6.89031H153.15V3.57031H137.62Z" fill="white"/>
<path d="M72.0001 8.00055H71.45C70.23 8.00055 69.1001 8.38055 68.1201 9.02055V3.56055H64.79V27.9705H68.67V14.6605C68.67 13.1305 69.9101 11.8905 71.4401 11.8905H71.9901C73.5201 11.8905 74.76 13.1305 74.76 14.6605V27.9705H78.64V14.6605C78.64 10.9805 75.66 8.00055 71.98 8.00055H72.0001Z" fill="white"/>
<path d="M89.1199 6.89062H88.2399C84.1899 6.89062 80.9199 10.1706 80.9199 14.2106V20.6406C80.9199 24.6906 84.1999 27.9606 88.2399 27.9606H89.1199C93.1699 27.9606 96.4399 24.6806 96.4399 20.6406V19.8306H92.5599V20.6406C92.5599 22.5406 91.0199 24.0806 89.1199 24.0806H88.2399C86.3399 24.0806 84.7999 22.5406 84.7999 20.6406V17.6106H96.4499V14.2106C96.4499 10.1606 93.1699 6.89062 89.1299 6.89062H89.1199ZM92.5599 14.8406H84.7899V14.2206C84.7899 12.3206 86.3299 10.7806 88.2299 10.7806H89.1099C91.0099 10.7806 92.5499 12.3206 92.5499 14.2206V14.8406H92.5599Z" fill="white"/>
<path d="M129.12 3.01H126.14C122.67 3.01 119.86 5.82 119.86 9.29V10.45C119.86 11.17 120.38 13.06 121.32 13.65L129.67 19.96C130.51 20.48 131 21.42 130.95 22.41C130.9 23.4 130.07 24.09 129.12 24.09H126.14C125.12 24.09 124.3 23.27 124.3 22.25V19.27C124.3 19.27 124.3 19.26 124.29 19.26H119.88C119.88 19.26 119.87 19.26 119.87 19.27V22.25C119.87 25.72 122.68 28.53 126.15 28.53H129.13C132.6 28.53 135.41 25.72 135.41 22.25V20.59C135.41 19.35 134.37 18.2 133.95 17.89L125.59 11.57C124.8 11.08 124.32 10.21 124.32 9.28C124.32 8.26 125.14 7.44 126.16 7.44H129.14C130.16 7.44 130.98 8.26 130.98 9.28V12.26C130.98 12.26 130.98 12.27 130.99 12.27H135.4C135.4 12.27 135.41 12.27 135.41 12.26V9.28C135.41 5.81 132.6 3 129.13 3L129.12 3.01Z" fill="white"/>
<path d="M33.4645 12.0267H17.9424L4.94141 7.60156H21.1365L33.4645 12.0267Z" fill="url(#paint0_linear_39_215)"/>
<path d="M30.0885 24.0521H14.5771L1.57617 19.627H17.7713L30.0885 24.0521Z" fill="url(#paint1_linear_39_215)"/>
<path d="M4.94141 7.60109H34.6716L34.7891 7.21998C35.8574 3.63116 33.2401 0 29.5759 0H7.21685L4.94141 7.59051V7.60109Z" fill="url(#paint2_linear_39_215)"/>
<path d="M1.57617 19.6265H31.1889L33.4643 12.0254H3.85161L1.57617 19.6265Z" fill="url(#paint3_linear_39_215)"/>
<path d="M5.45417 31.9401H27.8132L30.0887 24.3496H0.358493L0.240965 24.7307C-0.827314 28.3195 1.78998 31.9507 5.45417 31.9507V31.9401Z" fill="url(#paint4_linear_39_215)"/>
<defs>
<linearGradient id="paint0_linear_39_215" x1="4.94141" y1="9.81414" x2="33.4645" y2="9.81414" gradientUnits="userSpaceOnUse">
<stop stop-color="white"/>
<stop offset="0.99" stop-color="white" stop-opacity="0.2"/>
</linearGradient>
<linearGradient id="paint1_linear_39_215" x1="1.57617" y1="21.8395" x2="30.0885" y2="21.8395" gradientUnits="userSpaceOnUse">
<stop stop-color="white"/>
<stop offset="0.99" stop-color="white" stop-opacity="0.2"/>
</linearGradient>
<linearGradient id="paint2_linear_39_215" x1="33.3683" y1="3.80055" x2="5.91354" y2="3.80055" gradientUnits="userSpaceOnUse">
<stop offset="0.51" stop-color="white"/>
<stop offset="1" stop-color="#BDBDBD"/>
</linearGradient>
<linearGradient id="paint3_linear_39_215" x1="30.8363" y1="15.8259" x2="3.39225" y2="15.8259" gradientUnits="userSpaceOnUse">
<stop offset="0.52" stop-color="white"/>
<stop offset="1" stop-color="#BDBDBD"/>
</linearGradient>
<linearGradient id="paint4_linear_39_215" x1="28.7533" y1="28.1396" x2="1.30924" y2="28.1396" gradientUnits="userSpaceOnUse">
<stop offset="0.52" stop-color="white"/>
<stop offset="1" stop-color="#BDBDBD"/>
</linearGradient>
</defs>
</svg>
