<svg width="56" height="56" viewBox="0 0 56 56" fill="none" xmlns="http://www.w3.org/2000/svg">
<g filter="url(#filter0_i_3296_17961)">
<path d="M0 28C0 17.5323 0 12.2985 2.25077 8.4C3.72528 5.84608 5.84608 3.72528 8.4 2.25077C12.2985 0 17.5323 0 28 0C38.4677 0 43.7015 0 47.6 2.25077C50.1539 3.72528 52.2747 5.84608 53.7492 8.4C56 12.2985 56 17.5323 56 28C56 38.4677 56 43.7015 53.7492 47.6C52.2747 50.1539 50.1539 52.2747 47.6 53.7492C43.7015 56 38.4677 56 28 56C17.5323 56 12.2985 56 8.4 53.7492C5.84608 52.2747 3.72528 50.1539 2.25077 47.6C0 43.7015 0 38.4677 0 28Z" fill="url(#paint0_radial_3296_17961)"/>
</g>
<g style="mix-blend-mode:lighten">
<path d="M42.1751 24.5002H28.2471L16.5814 20.6113H31.1132L42.1751 24.5002Z" fill="url(#paint1_linear_3296_17961)"/>
<path d="M39.4189 35.3889H25.4953L13.8251 31.5H28.3625L39.4189 35.3889Z" fill="url(#paint2_linear_3296_17961)"/>
<path d="M16.5814 20.6111H43.4264L43.5325 20.2796C44.4971 17.1582 42.1338 14 38.8252 14H18.636L16.5814 20.6019V20.6111Z" fill="url(#paint3_linear_3296_17961)"/>
<path d="M13.8251 31.5H40.1522L42.1751 24.5H15.8481L13.8251 31.5Z" fill="url(#paint4_linear_3296_17961)"/>
<path d="M17.1749 41.9906H37.3641L39.4188 35.3887H12.5737L12.4676 35.7201C11.503 38.8416 13.8663 41.9998 17.1749 41.9998V41.9906Z" fill="url(#paint5_linear_3296_17961)"/>
</g>
<defs>
<filter id="filter0_i_3296_17961" x="0" y="0" width="56" height="56" filterUnits="userSpaceOnUse" color-interpolation-filters="sRGB">
<feFlood flood-opacity="0" result="BackgroundImageFix"/>
<feBlend mode="normal" in="SourceGraphic" in2="BackgroundImageFix" result="shape"/>
<feColorMatrix in="SourceAlpha" type="matrix" values="0 0 0 0 0 0 0 0 0 0 0 0 0 0 0 0 0 0 127 0" result="hardAlpha"/>
<feOffset/>
<feGaussianBlur stdDeviation="1"/>
<feComposite in2="hardAlpha" operator="arithmetic" k2="-1" k3="1"/>
<feColorMatrix type="matrix" values="0 0 0 0 0 0 0 0 0 0 0 0 0 0 0 0 0 0 0.08 0"/>
<feBlend mode="multiply" in2="shape" result="effect1_innerShadow_3296_17961"/>
</filter>
<radialGradient id="paint0_radial_3296_17961" cx="0" cy="0" r="1" gradientUnits="userSpaceOnUse" gradientTransform="translate(7) rotate(56.0702) scale(29.0007)">
<stop stop-color="#FFD8BC"/>
<stop offset="1" stop-color="#FFA563"/>
</radialGradient>
<linearGradient id="paint1_linear_3296_17961" x1="16.5814" y1="22.5558" x2="42.1751" y2="22.5558" gradientUnits="userSpaceOnUse">
<stop stop-color="white"/>
<stop offset="0.99" stop-color="white" stop-opacity="0.2"/>
</linearGradient>
<linearGradient id="paint2_linear_3296_17961" x1="13.8251" y1="33.4444" x2="39.4189" y2="33.4444" gradientUnits="userSpaceOnUse">
<stop stop-color="white"/>
<stop offset="0.99" stop-color="white" stop-opacity="0.2"/>
</linearGradient>
<linearGradient id="paint3_linear_3296_17961" x1="42.2496" y1="17.3056" x2="17.4592" y2="17.3056" gradientUnits="userSpaceOnUse">
<stop offset="0.51" stop-color="white"/>
<stop offset="1" stop-color="#BDBDBD"/>
</linearGradient>
<linearGradient id="paint4_linear_3296_17961" x1="39.8388" y1="28" x2="15.4397" y2="28" gradientUnits="userSpaceOnUse">
<stop offset="0.52" stop-color="white"/>
<stop offset="1" stop-color="#BDBDBD"/>
</linearGradient>
<linearGradient id="paint5_linear_3296_17961" x1="38.213" y1="38.685" x2="13.4322" y2="38.685" gradientUnits="userSpaceOnUse">
<stop offset="0.52" stop-color="white"/>
<stop offset="1" stop-color="#BDBDBD"/>
</linearGradient>
</defs>
</svg>
